<svg width="102" height="40" viewBox="0 0 102 40" fill="none" xmlns="http://www.w3.org/2000/svg">
<g clip-path="url(#clip0_363_4703)">
<path d="M76.7385 11.0073H74.3955V0.165075H76.7385V11.0103V11.0073ZM7.4278 11.0073H0.515625V0.165075H7.19079C9.40185 0.165075 10.6709 1.2301 10.6709 3.08715C10.6709 4.44018 9.81886 5.0972 9.31485 5.3702C10.3469 5.80822 10.9799 6.77724 10.9799 7.93827C10.9799 9.83132 9.61785 11.0073 7.4278 11.0073ZM2.77168 4.50918H6.84878C8.16282 4.50918 8.43882 3.86417 8.43882 3.32115C8.43882 2.55613 7.87481 2.13312 6.84878 2.13312H2.77168V4.50618V4.50918ZM7.15779 9.0183C8.11182 9.0183 8.70583 8.52328 8.70583 7.72826C8.70583 6.93324 8.09982 6.43823 7.15779 6.43823H2.77168V9.0213H7.15779V9.0183ZM22.7552 8.95829H15.18V6.46523H21.9572V4.43418H15.18V2.20813H22.7552V0.165075H12.8669V11.0073H22.7552V8.96129V8.95829ZM101.357 2.21113V0.165075H91.4689V11.0073H101.357V8.96129H93.782V6.46823H100.559V4.43718H93.782V2.21113H101.357ZM32.8624 6.79224L35.4455 11.0073H32.8954L30.5284 7.03225H27.1953V11.0073H24.8522V0.165075H31.2454C33.6875 0.165075 35.1455 1.45211 35.1455 3.60616C35.1455 5.1722 34.3145 6.33023 32.8624 6.79224ZM32.8174 3.62116C32.8174 2.69114 32.1724 2.18112 31.0054 2.18112H27.1953V5.0462H31.0054C32.1574 5.0462 32.8174 4.52718 32.8174 3.62116ZM81.5627 11.0073H79.2196V0.165075H85.6128C88.0548 0.165075 89.5129 1.45211 89.5129 3.60616C89.5129 5.1722 88.6818 6.33023 87.2298 6.79224L89.8129 11.0073H87.2628L84.8957 7.03225H81.5627V11.0073ZM81.5627 5.0462H85.3728C86.5248 5.0462 87.1848 4.52718 87.1848 3.62116C87.1848 2.71514 86.5398 2.18112 85.3728 2.18112H81.5627V5.0462ZM54.268 9.1383C53.1819 9.1383 51.1659 8.86529 49.8789 7.02925L49.8219 6.94824L48.3308 8.59829L48.3638 8.64929C49.3329 10.1343 51.7269 11.1693 54.184 11.1693C57.343 11.1693 59.3051 9.79232 59.3051 7.57826C59.3051 5.2232 57.256 4.79719 54.364 4.44918C51.8439 4.14017 51.3399 3.96917 51.3399 3.26115C51.3399 2.65814 51.8769 2.01312 53.74 2.01312C55.426 2.01312 56.827 2.61014 57.5831 3.64816L57.6371 3.72316L59.1191 2.21113L59.0801 2.15712C58.1471 0.843091 56.092 -0.00292969 53.848 -0.00292969C50.9769 -0.00292969 49.0508 1.39811 49.0508 3.48316C49.0508 5.74221 51.1449 6.18023 53.476 6.46223L53.53 6.46823C56.314 6.78924 56.932 6.87624 56.932 7.81227C56.932 8.60129 55.942 9.1323 54.271 9.1323L54.268 9.1383ZM11.2589 22.5846V16.2815H8.91584V20.5386H2.85868V16.2815H0.515625V27.1267H2.85868V22.5876H8.91584V27.1267H11.2589V22.5876V22.5846ZM21.8552 24.6397H16.269L15.093 27.1267H12.5669L17.7901 16.2845H20.3551L25.5783 27.1267H23.0222L21.8612 24.6397H21.8552ZM20.9011 22.6236L19.0621 18.7025L17.211 22.6236H20.9011ZM56.935 16.2815L62.1582 27.1237H59.6021L58.4411 24.6367H52.8549L51.6789 27.1237H49.1528L54.376 16.2815H56.941H56.935ZM57.4841 22.6236L55.645 18.7025L53.794 22.6236H57.4841ZM88.0788 27.1267L86.9178 24.6397H81.3317L80.1556 27.1267H77.6296L82.8527 16.2845H85.4178L90.6409 27.1267H88.0848H88.0788ZM85.9608 22.6236L84.1217 18.7025L82.2707 22.6236H85.9608ZM24.3332 18.3275H28.7073V27.1237H31.0654V18.3275H35.4395V16.2815H24.3332V18.3275ZM39.3096 11.0073H39.4386V7.69526L41.0286 6.29423L45.1897 11.0073H48.2708L42.7447 4.77319L47.9858 0.165075H44.6947L39.4446 4.92919V0.165075H37.1015V11.0073H39.3156H39.3096ZM47.8388 22.5876V16.2845H45.4958V20.5416H39.4386V16.2845H37.0955V27.1297H39.4386V22.5906H45.4958V27.1297H47.8388V22.5906V22.5876ZM63.5172 11.0073V6.46823H69.5714V11.0073H71.9144V0.165075H69.5714V4.42218H63.5172V0.162074H61.1741V11.0073H63.5172ZM78.6076 16.2815L75.0405 27.1237H72.5324L70.1384 19.1435L67.7173 27.1237H65.2212L65.2032 27.0697L61.6542 16.2785H64.1112L66.5953 24.0487L68.9623 16.2785H71.3534L73.7055 24.0487L76.1895 16.2785H78.6016L78.6076 16.2815ZM66.6373 24.1447H66.6313L66.6343 24.1567V24.1447H66.6373ZM98.7051 16.2815H98.5491L95.144 20.4246L91.7389 16.2815H88.8738L93.953 22.4556V27.1237H96.296V22.4556L101.36 16.2815H98.7081H98.7051ZM4.50873 36.262H1.55965V33.6399H0.515625V39.8711H1.55965V37.24H4.51173V39.8711H5.54975V33.6399H4.51173V36.262H4.50873ZM15.144 35.0589C15.381 35.545 15.501 36.112 15.501 36.754C15.501 37.396 15.381 37.963 15.144 38.449C14.907 38.938 14.565 39.3161 14.118 39.5891C13.671 39.8621 13.1369 39.9971 12.5159 39.9971C11.8949 39.9971 11.3579 39.8621 10.9139 39.5891C10.4699 39.3161 10.1279 38.938 9.89086 38.449C9.65385 37.963 9.53385 37.396 9.53385 36.754C9.53385 36.112 9.65385 35.545 9.89086 35.0589C10.1279 34.5729 10.4699 34.1919 10.9139 33.9189C11.3579 33.6459 11.8919 33.5109 12.5159 33.5109C13.1399 33.5109 13.674 33.6459 14.118 33.9189C14.565 34.1919 14.904 34.5729 15.144 35.0589ZM14.397 36.754C14.397 36.298 14.328 35.902 14.187 35.566C14.046 35.23 13.839 34.9689 13.56 34.7799C13.2809 34.5939 12.9329 34.4949 12.5159 34.4889C12.0989 34.4889 11.7509 34.5789 11.4719 34.7649C11.1959 34.9539 10.9859 35.2149 10.8479 35.557C10.7069 35.896 10.6379 36.295 10.6379 36.751C10.6379 37.207 10.7069 37.603 10.8449 37.939C10.9829 38.275 11.1929 38.536 11.4689 38.725C11.7479 38.914 12.0959 39.01 12.5129 39.016C12.9299 39.016 13.2779 38.926 13.557 38.74C13.836 38.554 14.043 38.29 14.184 37.948C14.325 37.609 14.394 37.21 14.394 36.754H14.397ZM22.5812 38.053L20.4271 33.6399H19.4881V39.8711H20.4661V35.878L22.3742 39.8711H22.7882L24.6992 35.878V39.8711H25.6713V33.6399H24.7322L22.5782 38.053H22.5812ZM30.0094 39.8711H34.0325V38.893H31.0504V37.132H33.5135V36.154H31.0504V34.6179H34.0325V33.6399H30.0094V39.8711ZM42.2827 36.799C42.1057 36.676 41.9227 36.577 41.7337 36.508C41.5447 36.439 41.3706 36.385 41.2176 36.343L40.1016 36.031C39.9606 35.995 39.8196 35.947 39.6846 35.89C39.5466 35.833 39.4326 35.758 39.3396 35.662C39.2466 35.566 39.2016 35.44 39.2016 35.287C39.2016 35.1249 39.2556 34.9839 39.3636 34.8639C39.4716 34.7439 39.6156 34.6509 39.7926 34.5849C39.9696 34.5189 40.1616 34.4889 40.3716 34.4919C40.5846 34.4979 40.7856 34.5399 40.9746 34.6209C41.1636 34.7019 41.3227 34.8189 41.4547 34.9749C41.5867 35.1309 41.6737 35.317 41.7217 35.536L42.8437 35.341C42.7507 34.9569 42.5917 34.6299 42.3667 34.3599C42.1417 34.0899 41.8627 33.8829 41.5267 33.7389C41.1906 33.5949 40.8126 33.5229 40.3836 33.5199C39.9636 33.5199 39.5796 33.5829 39.2346 33.7179C38.8896 33.8529 38.6166 34.0569 38.4126 34.3299C38.2086 34.6029 38.1066 34.9389 38.1066 35.341C38.1066 35.614 38.1516 35.845 38.2416 36.031C38.3316 36.217 38.4486 36.37 38.5926 36.49C38.7366 36.61 38.8866 36.703 39.0456 36.772C39.2046 36.841 39.3546 36.895 39.4926 36.934L41.1006 37.411C41.2146 37.447 41.3166 37.486 41.4067 37.534C41.4937 37.582 41.5657 37.633 41.6227 37.693C41.6797 37.75 41.7217 37.816 41.7517 37.891C41.7817 37.966 41.7937 38.044 41.7937 38.131C41.7937 38.323 41.7337 38.488 41.6107 38.62C41.4877 38.752 41.3286 38.854 41.1336 38.923C40.9386 38.992 40.7286 39.028 40.5066 39.028C40.1316 39.028 39.8016 38.926 39.5136 38.725C39.2256 38.524 39.0366 38.239 38.9436 37.867L37.8606 38.032C37.9236 38.44 38.0736 38.791 38.3076 39.085C38.5416 39.3821 38.8416 39.6071 39.2076 39.7661C39.5736 39.9251 39.9816 40.0031 40.4376 40.0031C40.7586 40.0031 41.0646 39.9641 41.3557 39.8831C41.6497 39.8021 41.9077 39.6821 42.1357 39.5201C42.3637 39.3581 42.5437 39.157 42.6787 38.911C42.8137 38.668 42.8797 38.383 42.8797 38.062C42.8797 37.741 42.8227 37.495 42.7087 37.291C42.5947 37.09 42.4507 36.925 42.2737 36.802L42.2827 36.799ZM46.9508 39.8711H50.9739V38.893H47.9918V37.132H50.4549V36.154H47.9918V34.6179H50.9739V33.6399H46.9508V39.8711ZM58.7441 37.51L59.8961 39.8711H58.7141L57.6581 37.696H56.176V39.8711H55.132V33.6399H57.7061C57.7661 33.6399 57.8441 33.6399 57.9401 33.6459C58.0361 33.6489 58.1231 33.6609 58.2041 33.6729C58.5641 33.7269 58.8611 33.8469 59.0981 34.0329C59.3321 34.2189 59.5091 34.4499 59.6231 34.7319C59.7371 35.0139 59.7941 35.326 59.7941 35.668C59.7941 36.175 59.6651 36.613 59.4101 36.976C59.2451 37.21 59.0231 37.387 58.7441 37.507V37.51ZM56.179 36.721H57.6671C57.7241 36.721 57.7901 36.721 57.8621 36.712C57.9341 36.706 58.0001 36.694 58.0601 36.676C58.2341 36.634 58.3691 36.556 58.4681 36.448C58.5671 36.337 58.6391 36.214 58.6811 36.076C58.7231 35.938 58.7441 35.803 58.7441 35.668C58.7441 35.533 58.7231 35.398 58.6811 35.26C58.6391 35.1219 58.5701 34.9959 58.4681 34.8849C58.3691 34.7739 58.2311 34.6989 58.0601 34.6569C58.0001 34.6389 57.9341 34.6299 57.8621 34.6239C57.7901 34.6209 57.7241 34.6179 57.6671 34.6179H56.179V36.721ZM66.1243 38.857L64.4802 33.6399H63.4062L65.3712 39.8711H66.8983L68.8633 33.6399H67.7893L66.1243 38.857ZM72.7214 39.8681H73.7655V33.6369H72.7214V39.8681ZM79.7746 34.7709C80.0536 34.5849 80.4016 34.4889 80.8186 34.4889C81.2837 34.4889 81.6617 34.6029 81.9527 34.8339C82.2437 35.0649 82.4507 35.38 82.5707 35.788L83.6207 35.497C83.4287 34.8879 83.0927 34.4049 82.6127 34.0449C82.1327 33.6849 81.5357 33.5049 80.8186 33.5049C80.1946 33.5049 79.6606 33.6399 79.2166 33.9129C78.7726 34.1859 78.4306 34.5669 78.1936 35.0529C77.9566 35.539 77.8366 36.106 77.8366 36.748C77.8366 37.39 77.9566 37.957 78.1936 38.443C78.4306 38.932 78.7726 39.3101 79.2166 39.5831C79.6606 39.8561 80.1946 39.9911 80.8186 39.9911C81.5357 39.9911 82.1357 39.8111 82.6127 39.4511C83.0927 39.091 83.4287 38.608 83.6207 37.999L82.5707 37.708C82.4507 38.113 82.2437 38.428 81.9527 38.659C81.6617 38.89 81.2837 39.004 80.8186 39.004C80.4016 39.004 80.0506 38.911 79.7716 38.722C79.4926 38.536 79.2826 38.272 79.1416 37.933C79.0006 37.594 78.9316 37.198 78.9316 36.742C78.9316 36.286 79.0066 35.89 79.1446 35.551C79.2856 35.212 79.4926 34.9479 79.7716 34.7619L79.7746 34.7709ZM87.6978 39.8681H91.7209V38.89H88.7388V37.129H91.2019V36.151H88.7388V34.6149H91.7209V33.6369H87.6978V39.8681ZM99.9711 36.796C99.7941 36.673 99.6111 36.574 99.4221 36.505C99.2331 36.436 99.0591 36.382 98.9061 36.34L97.7901 36.028C97.6491 35.992 97.5081 35.944 97.3731 35.887C97.2351 35.83 97.1211 35.755 97.028 35.659C96.935 35.563 96.89 35.437 96.89 35.284C96.89 35.1219 96.944 34.9809 97.052 34.8609C97.16 34.7409 97.304 34.6479 97.4811 34.5819C97.6581 34.5159 97.8501 34.4859 98.0601 34.4889C98.2731 34.4949 98.4741 34.5369 98.6631 34.6179C98.8521 34.6989 99.0111 34.8159 99.1431 34.9719C99.2751 35.1279 99.3621 35.314 99.4101 35.533L100.532 35.338C100.439 34.9539 100.28 34.6269 100.055 34.3569C99.8301 34.0869 99.5511 33.8799 99.2151 33.7359C98.8791 33.5919 98.5011 33.5199 98.0721 33.5169C97.6521 33.5169 97.2681 33.5799 96.923 33.7149C96.578 33.8499 96.305 34.0539 96.101 34.3269C95.897 34.5999 95.795 34.9359 95.795 35.338C95.795 35.611 95.84 35.842 95.93 36.028C96.02 36.214 96.137 36.367 96.281 36.487C96.425 36.607 96.575 36.7 96.734 36.769C96.893 36.838 97.043 36.892 97.181 36.931L98.7891 37.408C98.9031 37.444 99.0051 37.483 99.0951 37.531C99.1821 37.579 99.2541 37.63 99.3111 37.69C99.3681 37.747 99.4101 37.813 99.4401 37.888C99.4701 37.963 99.4821 38.041 99.4821 38.128C99.4821 38.32 99.4221 38.485 99.2991 38.617C99.1761 38.749 99.0171 38.851 98.8221 38.92C98.6271 38.989 98.4171 39.025 98.1951 39.025C97.8201 39.025 97.4901 38.923 97.202 38.722C96.914 38.521 96.725 38.236 96.632 37.864L95.549 38.029C95.612 38.437 95.762 38.788 95.996 39.082C96.23 39.3791 96.53 39.6041 96.896 39.7631C97.2621 39.9221 97.6701 40.0001 98.1261 40.0001C98.4471 40.0001 98.7531 39.9611 99.0441 39.8801C99.3381 39.7991 99.5961 39.6791 99.8241 39.5171C100.052 39.3551 100.232 39.154 100.367 38.908C100.502 38.665 100.568 38.38 100.568 38.059C100.568 37.738 100.511 37.492 100.397 37.288C100.283 37.087 100.139 36.922 99.9621 36.799L99.9711 36.796Z" fill="#666666"/>
</g>
<defs>
<clipPath id="clip0_363_4703">
<rect width="100.842" height="40" fill="white" transform="translate(0.515625)"/>
</clipPath>
</defs>
</svg>
