<svg width="174" height="36" viewBox="0 0 174 36" fill="none" xmlns="http://www.w3.org/2000/svg">
<path d="M17.682 26.2148H16.6426V32.8121H17.682V26.2148Z" fill="#666666"/>
<path d="M24.8594 32.9193L20.9735 27.9434C20.8618 27.7979 20.7205 27.6103 20.6509 27.4353H20.6003C20.6003 27.5723 20.613 27.8464 20.613 28.0994V32.8118H19.7422V26.244L20.8533 26.166L20.9335 26.2145L24.2015 30.5157C24.3027 30.6528 24.6042 31.0217 24.6569 31.2094H24.697C24.697 31.0344 24.6865 30.7013 24.6865 30.4672V26.2145H25.5551V32.9193H24.8594Z" fill="#666666"/>
<path d="M30.2398 26.9676V32.8121H29.2004V26.9676H26.7188V26.2148H32.713V26.9676H30.2398Z" fill="#666666"/>
<path d="M37.9527 32.8113H33.875V26.2119H37.8325V26.9541H34.9166V28.9107H37.5205V29.6634H34.9166V31.755C34.9166 32.008 35.0473 32.067 35.2286 32.067H38.0645L37.9527 32.8113Z" fill="#666666"/>
<path d="M43.6098 32.8616L43.5381 32.8131L40.7634 29.3911H41.1155C41.9842 29.3911 42.8107 29.0496 42.8107 28.0818C42.8107 27.055 42.0643 26.8505 41.086 26.8505H40.4809V32.8152H39.4414V26.2158H41.4592C42.5893 26.2158 43.9303 26.4604 43.9303 27.9068C43.9303 28.9125 43.1544 29.5197 42.2962 29.7348L44.8685 32.7857L43.6098 32.8616Z" fill="#666666"/>
<path d="M51.1494 32.9193L47.2636 27.9434C47.1539 27.7979 47.0105 27.6103 46.941 27.4353H46.8904C46.8904 27.5723 46.9009 27.8464 46.9009 28.0994V32.8118H46.0322V26.244L47.1434 26.166L47.2235 26.2145L50.4916 30.5157C50.5928 30.6528 50.8964 31.0217 50.947 31.2094H50.987C50.987 31.0344 50.9744 30.7013 50.9744 30.4672V26.2145H51.8431V32.9193H51.1494Z" fill="#666666"/>
<path d="M56.3868 27.9937C56.2751 27.7091 56.1654 27.4139 56.1444 27.1525H56.1043C56.0748 27.4139 55.9314 27.7492 55.8197 28.0127L54.9531 30.0937H57.1817L56.3868 27.9937ZM58.2929 32.86L58.2127 32.8136L57.4347 30.7474H54.7001L53.842 32.8136L53.7618 32.86L52.9648 32.782L55.8597 26.0371H56.6483L59.3218 32.782L58.2929 32.86Z" fill="#666666"/>
<path d="M62.3464 26.9676V32.8121H61.307V26.9676H58.8232V26.2148H64.8196V26.9676H62.3464Z" fill="#666666"/>
<path d="M67.0424 26.2148H66.0029V32.8121H67.0424V26.2148Z" fill="#666666"/>
<path d="M71.8491 26.7441C70.7991 26.7441 69.6205 27.3302 69.6205 29.5188C69.6205 31.6103 70.719 32.2555 71.8618 32.2555C73.0024 32.2555 74.1009 31.6103 74.1009 29.5188C74.0988 27.3977 72.9708 26.7441 71.8491 26.7441ZM71.8597 32.9703C69.8609 32.9703 68.4883 31.7874 68.4883 29.5188C68.4883 27.3492 70.1645 26.0293 71.8597 26.0293C73.675 26.0293 75.2289 27.0941 75.2289 29.5188C75.2289 31.5133 73.7172 32.9703 71.8597 32.9703Z" fill="#666666"/>
<path d="M81.7969 32.9193L77.9131 27.9434C77.8014 27.7979 77.6601 27.6103 77.5884 27.4353H77.5378C77.5378 27.5723 77.5484 27.8464 77.5484 28.0994V32.8118H76.6797V26.244L77.7887 26.166L77.8688 26.2145L81.139 30.5157C81.2402 30.6528 81.5438 31.0217 81.5944 31.2094H81.6345C81.6345 31.0344 81.624 30.7013 81.624 30.4672V26.2145H82.4926V32.9193H81.7969Z" fill="#666666"/>
<path d="M87.0335 27.9947C86.9217 27.7101 86.8121 27.4149 86.791 27.1534H86.7509C86.7214 27.4149 86.5802 27.7501 86.4684 28.0137L85.6018 30.0947H87.8305L87.0335 27.9947ZM88.9395 32.861L88.8594 32.8146L88.0814 30.7483H85.3467L84.4886 32.8146L84.4064 32.861L83.6094 32.783L86.5064 26.0381H87.2928L89.9663 32.783L88.9395 32.861Z" fill="#666666"/>
<path d="M95.1636 32.8123H91.0859V26.2129H92.1254V31.756C92.1254 32.009 92.2561 32.068 92.4374 32.068H95.2733L95.1636 32.8123Z" fill="#666666"/>
<path d="M103.195 32.8626L103.123 32.8141L100.348 29.3921H100.7C101.569 29.3921 102.396 29.0505 102.396 28.0828C102.396 27.056 101.649 26.8514 100.671 26.8514H100.064V32.8162H99.0264V26.2168H101.044C102.174 26.2168 103.517 26.4614 103.517 27.9078C103.517 28.9135 102.739 29.5207 101.881 29.7358L104.453 32.7867L103.195 32.8626Z" fill="#666666"/>
<path d="M109.696 32.8123H105.62V26.2129H109.576V26.9551H106.66V28.9117H109.261V29.6644H106.66V31.756C106.66 32.009 106.79 32.068 106.972 32.068H109.807L109.696 32.8123Z" fill="#666666"/>
<path d="M113.939 27.9947C113.83 27.7101 113.718 27.4149 113.697 27.1534H113.657C113.625 27.4149 113.486 27.7501 113.374 28.0137L112.506 30.0947H114.734L113.939 27.9947ZM115.848 32.861L115.765 32.8146L114.987 30.7483H112.253L111.395 32.8146L111.317 32.861L110.52 32.783L113.414 26.0381H114.201L116.876 32.783L115.848 32.861Z" fill="#666666"/>
<path d="M122.072 32.8123H117.996V26.2129H119.036V31.756C119.036 32.009 119.166 32.068 119.348 32.068H122.183L122.072 32.8123Z" fill="#666666"/>
<path d="M130.01 32.8123H125.933V26.2129H129.89V26.9551H126.972V28.9117H129.576V29.6644H126.972V31.756C126.972 32.009 127.105 32.068 127.286 32.068H130.122L130.01 32.8123Z" fill="#666666"/>
<path d="M132.958 32.9488C132.302 32.9488 131.676 32.8033 131.17 32.5397L131.474 31.787C131.794 31.9831 132.391 32.2087 133.017 32.2087C133.723 32.2087 134.541 31.903 134.541 31.1229C134.541 30.4482 133.945 30.1256 133.38 29.8894L132.553 29.5373C131.866 29.2442 131.25 28.7762 131.25 27.9159C131.25 26.7415 132.401 26.0479 133.582 26.0479C134.217 26.0479 134.742 26.1933 135.216 26.44L134.864 27.2307C134.571 27.0241 134.027 26.79 133.47 26.79C132.684 26.79 132.209 27.1232 132.209 27.6503C132.209 28.19 132.665 28.4325 133.28 28.7066L134.179 29.0966C134.855 29.3918 135.53 29.9569 135.53 30.8171C135.532 32.1581 134.29 32.9488 132.958 32.9488Z" fill="#666666"/>
<path d="M139.76 26.9676V32.8121H138.72V26.9676H136.236V26.2148H142.233V26.9676H139.76Z" fill="#666666"/>
<path d="M145.066 27.9937C144.955 27.7091 144.845 27.4139 144.824 27.1525H144.782C144.752 27.4139 144.611 27.7492 144.499 28.0127L143.631 30.0937H145.861L145.066 27.9937ZM146.975 32.86L146.894 32.8136L146.116 30.7474H143.382L142.524 32.8136L142.443 32.86L141.646 32.782L144.543 26.0371H145.33L148.003 32.782L146.975 32.86Z" fill="#666666"/>
<path d="M151.027 26.9676V32.8121H149.99V26.9676H147.506V26.2148H153.5V26.9676H151.027Z" fill="#666666"/>
<path d="M158.74 32.8123H154.664V26.2129H158.622V26.9551H155.704V28.9117H158.307V29.6644H155.704V31.756C155.704 32.009 155.834 32.068 156.016 32.068H158.851L158.74 32.8123Z" fill="#666666"/>
<path d="M158.698 17.4138C159.394 20.0072 161.707 21.5232 164.292 21.5232C166.508 21.5232 168.858 20.3867 168.858 18.0843C168.858 13.8864 158.234 12.6045 158.234 7.50418C158.234 5.08581 160.749 3.27888 164.125 3.27888C166.904 3.27888 167.467 4.0084 168.627 4.0084C168.892 4.0084 169.023 3.95147 169.223 3.71744H169.75L170.313 7.41984H169.75C168.825 5.31984 166.706 3.98099 164.422 3.98099C162.24 3.98099 160.716 5.08792 160.716 6.71984C160.716 10.8566 171.34 11.9656 171.34 17.3274C171.34 20.1843 168.46 22.3096 164.589 22.3096C162.767 22.3096 160.45 21.5232 159.986 21.5232C159.689 21.5232 159.457 21.6707 159.324 21.8436H158.761L158.067 17.4138H158.698ZM152.118 8.78611C153.775 7.94274 154.667 6.92015 154.667 5.87225C154.667 5.52225 154.536 5.26081 154.205 5.26081C153.908 5.26081 153.775 5.34725 153.412 5.34725C152.55 5.34725 151.921 4.79484 151.921 4.03581C151.921 3.24936 152.716 2.6084 153.709 2.6084C155.033 2.6084 156.027 3.62888 156.027 5.02677C156.027 6.8337 154.54 8.58159 152.354 9.309L152.118 8.78611ZM147.024 15.2864H146.393C146.13 13.2159 145.499 12.984 144.146 12.984H138.55V19.1912C138.55 20.5301 139.113 20.7936 140.338 20.7936H145.434C147.749 20.7936 148.445 20.0072 149.273 17.5003H149.87L149.339 21.8415H131.765V21.2891H132.69C135.339 21.2891 135.802 20.6482 135.802 18.8982V6.60177C135.802 4.96984 135.372 4.26984 133.154 4.26984H132.427V3.71533H148.314L148.577 7.76563H147.983C147.553 5.29033 146.726 4.76322 145.535 4.76322H138.552V11.9319H144.477C145.668 11.9319 146.231 11.4385 146.397 9.74545H147.028V15.2864H147.024ZM130.183 21.8415H122.142V21.2891C124.193 21.2006 124.624 20.7367 124.624 18.7822V6.36774C124.624 4.79274 123.995 4.35629 122.142 4.26774V3.71322H130.183V4.26774C128.098 4.26774 127.371 4.67677 127.371 6.62918V18.9867C127.371 20.7051 127.9 21.2891 130.183 21.2891V21.8415ZM110.828 19.1617C110.828 20.7367 111.425 21.2891 113.443 21.2891H114.668V21.8415H104.241V21.2891H105.464C107.486 21.2891 108.081 20.7367 108.081 19.1617V4.76322H102.323C100.999 4.76322 100.402 5.4337 99.9064 7.99755H99.3097L99.8389 3.27677H100.467C100.503 3.45177 100.634 3.56984 100.832 3.62677C101.032 3.68581 101.264 3.71322 101.496 3.71322H117.417C117.881 3.71322 118.374 3.62677 118.442 3.27677H119.07L119.599 7.99755H119.002C118.507 5.4337 117.91 4.76322 116.586 4.76322H110.828V19.1617ZM85.4446 17.4138C86.1404 20.0072 88.4555 21.5232 91.0383 21.5232C93.2564 21.5232 95.6051 20.3867 95.6051 18.0843C95.6051 13.8864 84.9829 12.6045 84.9829 7.50418C84.9829 5.08581 87.4982 3.27888 90.8759 3.27888C93.6527 3.27888 94.2178 4.0084 95.3774 4.0084C95.6389 4.0084 95.7717 3.95147 95.972 3.71744H96.5033L97.0663 7.41984H96.5033C95.5756 5.31984 93.4588 3.98099 91.1732 3.98099C88.991 3.98099 87.4687 5.08792 87.4687 6.71984C87.4687 10.8566 98.0931 11.9656 98.0931 17.3274C98.0931 20.1843 95.213 22.3096 91.3419 22.3096C89.5202 22.3096 87.2052 21.5232 86.7413 21.5232C86.4461 21.5232 86.2121 21.6707 86.0814 21.8436H85.5184L84.8247 17.4138H85.4446ZM81.8792 21.8415H73.8377V21.2891C75.8892 21.2006 76.3193 20.7367 76.3193 18.7822V6.36774C76.3193 4.79274 75.6889 4.35629 73.8377 4.26774V3.71322H81.8792V4.26774C79.794 4.26774 79.0645 4.67677 79.0645 6.62918V18.9867C79.0645 20.7051 79.5937 21.2891 81.8792 21.2891V21.8415ZM57.5205 13.3909C57.9506 13.4774 58.6801 13.6207 59.3085 13.6207C62.916 13.6207 65.231 11.4638 65.231 8.52256C65.231 6.24966 64.2064 4.00629 59.8039 4.00629C59.0428 4.00629 58.3154 4.00629 57.5205 4.12225V13.3909ZM57.5205 13.9433V19.0436C57.5205 20.6756 58.0835 21.2891 60.1687 21.2891H61.2609V21.8415H52.0934V21.2891H52.5573C54.2777 21.2891 54.7753 20.9686 54.7753 19.5982V5.81322C54.7753 4.7337 54.3768 4.26774 53.2193 4.26774H51.5642V3.71322C52.4898 3.68581 54.1133 3.59725 55.7347 3.53822C57.356 3.47918 58.9458 3.44966 59.8377 3.44966C66.7554 3.44966 68.3452 6.36563 68.3452 8.609C68.3452 12.0183 65.2648 13.2707 64.4383 13.5343L68.3768 18.7801C68.8428 19.3936 69.6693 20.2665 70.1985 20.7915C70.6624 21.2006 71.0925 21.4346 72.0497 21.696V22.2211H71.6217C68.4106 22.2211 66.4919 20.7915 63.0826 15.8367C62.4859 14.9617 62.0895 14.5253 61.691 14.1162C61.691 14.1204 59.3085 14.3229 57.5205 13.9433ZM31.241 13.1864V18.7253C31.241 20.6207 31.6711 21.2912 33.8892 21.2912H33.9904V21.8436H25.681V21.2912H25.8792C27.8316 21.2912 28.4937 20.8253 28.4937 19.1638V6.34033C28.4937 4.82436 27.9307 4.38581 26.1112 4.26984V3.71533H33.9883V4.26984C31.6374 4.26984 31.2389 4.82225 31.2389 7.06774V12.1385H44.2142V6.39725C44.2142 4.85177 43.6512 4.26984 41.5976 4.26984H40.9693V3.71533H49.4747V4.26984C47.4886 4.32888 46.9573 4.85177 46.9573 6.66081V18.7548C46.9573 20.8232 47.6214 21.2912 49.6054 21.2912H49.9365V21.8436H40.575V21.2912H41.6018C43.7545 21.2912 44.2184 20.6207 44.2184 19.1027V13.1864H31.241ZM22.7103 8.49515C21.6181 5.7837 18.7717 4.00629 15.1642 4.00629C9.63797 4.00629 6.1949 7.5337 6.1949 12.4274C6.1949 17.7048 10.4982 21.578 15.5289 21.578C18.1434 21.578 21.3545 20.7915 23.6042 17.2662H24.2347C23.8024 18.5777 22.9106 20.3846 22.1157 21.521C19.9967 21.2596 18.5398 22.3075 14.635 22.3075C7.91538 22.3075 3.08496 18.4027 3.08496 13.0114C3.08496 7.35659 8.04821 3.27677 14.966 3.27677C19.1365 3.27677 20.9244 4.44274 21.9491 4.44274C22.3139 4.44274 22.4783 4.35629 22.5437 4.26774H23.0413L23.3386 8.49304H22.7103V8.49515Z" fill="#666666"/>
</svg>
