<svg width="46" height="46" viewBox="0 0 46 46" fill="none" xmlns="http://www.w3.org/2000/svg">
<g clip-path="url(#clip0_363_4674)">
<path d="M23.4043 44.0395C35.0238 44.0395 44.4434 34.62 44.4434 23.0005C44.4434 11.3809 35.0238 1.96143 23.4043 1.96143C11.7847 1.96143 2.36523 11.3809 2.36523 23.0005C2.36523 34.62 11.7847 44.0395 23.4043 44.0395Z" fill="#666666"/>
<path d="M28.5246 13.0703L27.7346 15.206L25.4609 15.2967L27.247 16.7066L26.6308 18.899L28.5246 17.6346L30.4183 18.899L29.8003 16.7066L31.5882 15.2967L29.3127 15.206L28.5246 13.0703Z" fill="white"/>
<path d="M30.6542 29.097C30.6542 28.2976 30.435 27.5926 30.0022 26.9992C29.6866 26.5701 29.2859 26.2337 28.8058 25.9994C29.1555 25.7518 29.4428 25.4381 29.6639 25.0638C29.9852 24.5158 30.1496 23.9129 30.1496 23.2684C30.1496 22.8677 30.0797 22.4633 29.9398 22.0701C29.8 21.6751 29.5996 21.3179 29.3426 21.008C29.0837 20.6943 28.7661 20.4353 28.3976 20.2388C28.0196 20.0384 27.5963 19.9364 27.1351 19.9364H20.9039V25.5685C20.2878 25.6006 19.7057 25.4853 19.1935 25.2226C18.927 25.0865 18.6851 24.9145 18.4583 24.7255C18.2844 24.58 18.1162 24.425 17.9669 24.2474C17.6192 23.8373 17.3451 23.3591 17.1486 22.8261C16.9539 22.2932 16.8537 21.7224 16.8537 21.1308C16.8537 20.5998 16.9369 20.0649 17.1013 19.5395C17.2638 19.0197 17.5114 18.5454 17.8365 18.1315C18.1578 17.7213 18.5622 17.383 19.0366 17.1279C19.7189 16.7612 20.594 16.6441 21.5295 16.8444C21.8168 16.9049 22.1003 17.0107 22.3743 17.1544C22.6465 17.298 22.8997 17.4908 23.1303 17.7251C23.359 17.9595 23.5593 18.2562 23.7256 18.6077L23.8655 18.9026L25.5438 17.8158L25.436 17.5909C25.0429 16.7707 24.4362 16.096 23.6311 15.5857C22.8241 15.0754 21.8489 14.8184 20.7338 14.8184C19.7964 14.8184 18.944 15.0036 18.1994 15.3702C17.4623 15.7331 16.8273 16.2188 16.3151 16.8123C15.8048 17.4038 15.4136 18.0804 15.1509 18.8232C14.8882 19.5641 14.7559 20.3181 14.7559 21.0647C14.7559 21.8585 14.9014 22.6485 15.1868 23.412C15.4722 24.1756 15.8804 24.8673 16.4001 25.4702C16.9199 26.0731 17.5473 26.5683 18.2598 26.9425C18.3241 26.9765 18.394 27.0011 18.4602 27.0332C18.5018 27.0521 18.5452 27.0729 18.5868 27.0899C18.7134 27.1447 18.8438 27.1957 18.9743 27.2411C19.0612 27.2713 19.15 27.2978 19.2407 27.3242C19.3749 27.362 19.511 27.3942 19.649 27.4206C19.7416 27.4376 19.8342 27.4546 19.9287 27.466C20.163 27.4981 20.4031 27.5151 20.6488 27.5151C20.7338 27.5151 20.8207 27.5151 20.9058 27.5095C21.3065 27.4906 21.7166 27.4263 22.1343 27.3205C22.637 27.1919 23.1208 27.0011 23.5725 26.7554C23.7426 26.6628 23.9071 26.5607 24.0658 26.453C24.1717 26.3793 24.2737 26.3037 24.3739 26.2243C24.5232 26.1033 24.6668 25.9767 24.801 25.8406C24.8917 25.7499 24.9787 25.6535 25.0599 25.5533C25.1412 25.4532 25.2187 25.3511 25.2905 25.2453C25.4341 25.0317 25.5589 24.803 25.6609 24.563L25.7347 24.374L25.5551 24.2134H25.557L24.268 23.0284C24.268 23.0284 24.1357 23.3326 24.0639 23.4706C23.9921 23.6086 23.839 23.8543 23.7332 23.9922C23.5801 24.1926 23.4535 24.3457 23.2853 24.5139C23.1908 24.6084 23.0906 24.6915 22.9904 24.7728V21.8244H26.6135C26.8214 21.8244 27.0104 21.866 27.1937 21.9492C27.3732 22.0323 27.5282 22.1495 27.6511 22.295C27.7796 22.4481 27.8854 22.6352 27.9629 22.8488C28.0423 23.0643 28.0801 23.2986 28.0801 23.5443C28.0801 23.7768 28.0385 23.9998 27.9572 24.2058C27.8741 24.4137 27.7626 24.5989 27.6246 24.7501C27.4848 24.9032 27.3241 25.0223 27.1313 25.1149C26.948 25.2018 26.7401 25.2472 26.5133 25.2472H25.9671C25.9047 25.3568 25.8405 25.4664 25.7706 25.5704C25.6061 25.8142 25.4171 26.0428 25.2092 26.2507C24.9352 26.5248 24.6328 26.7724 24.3096 26.9878C24.2567 27.0237 24.2794 27.0445 24.3077 27.0445H26.9858C27.2088 27.0445 27.4148 27.0918 27.6 27.1844C27.789 27.2789 27.9554 27.4093 28.0914 27.5699C28.2313 27.7344 28.3447 27.9309 28.4297 28.1502C28.5129 28.3694 28.5545 28.6 28.5545 28.8343C28.5545 29.0687 28.511 29.2898 28.4241 29.5015C28.339 29.7113 28.2162 29.9003 28.0631 30.059C27.9062 30.2197 27.7248 30.3501 27.5207 30.4465C27.326 30.541 27.1068 30.5882 26.8686 30.5882H22.9923V27.6588C22.758 27.7476 22.5198 27.8232 22.2779 27.8837C21.8546 27.9914 21.4142 28.0557 20.9341 28.0783C20.9266 28.0783 20.9171 28.0783 20.9058 28.0783V32.4687H26.8667C27.3789 32.4687 27.8665 32.3893 28.3163 32.2344C28.768 32.0775 29.1725 31.8507 29.5184 31.5596C29.8661 31.2667 30.1458 30.9057 30.348 30.4899C30.5522 30.0722 30.6542 29.6054 30.6542 29.1027V29.097Z" fill="white"/>
<path d="M39.8405 32.5774L39.8046 32.4943C39.8802 32.4621 39.9502 32.4054 40.0012 32.3091C40.0579 32.2013 40.0352 32.1125 39.9653 32.0766C39.8802 32.0312 39.8122 32.1068 39.7404 32.1994C39.678 32.2788 39.5665 32.4395 39.4096 32.3563C39.2547 32.275 39.2849 32.1087 39.3435 31.9972C39.4021 31.8857 39.472 31.8347 39.5457 31.7969L39.5892 31.8781C39.5117 31.9197 39.4626 31.9632 39.4191 32.0445C39.3851 32.1087 39.3662 32.2183 39.455 32.2656C39.5438 32.3128 39.6383 32.1824 39.7007 32.1068C39.7631 32.0312 39.8613 31.9065 40.0144 31.9878C40.1562 32.0634 40.1562 32.2127 40.0844 32.3487C40.0125 32.4848 39.935 32.5396 39.8424 32.5793L39.8405 32.5774Z" fill="white"/>
<path d="M40.2472 32.0027L39.5498 31.6342L39.5574 31.6191L40.1376 31.5038L39.907 30.9595L39.9146 30.9443L40.612 31.3129L40.5666 31.3998L40.0979 31.1522L40.285 31.5813L39.8276 31.6663L40.2963 31.9139L40.2491 32.0027H40.2472Z" fill="white"/>
<path d="M36.2959 17.5553C35.5909 15.8883 34.5817 14.3934 33.2984 13.1082C32.0133 11.823 30.5164 10.8138 28.8513 10.1107C27.1258 9.38117 25.2944 9.01074 23.4045 9.01074C21.5145 9.01074 19.6831 9.38117 17.9576 10.1107C16.2907 10.8157 14.7957 11.8249 13.5105 13.1082C12.2253 14.3934 11.2161 15.8902 10.513 17.5553C9.78352 19.2808 9.41309 21.1122 9.41309 23.0021C9.41309 24.8921 9.78352 26.7235 10.513 28.449C11.218 30.116 12.2272 31.6109 13.5105 32.8961C14.7957 34.1813 16.2925 35.1905 17.9576 35.8936C19.6831 36.6231 21.5145 36.9935 23.4045 36.9935C25.2944 36.9935 27.1258 36.6231 28.8513 35.8936C30.5183 35.1886 32.0133 34.1794 33.2984 32.8961C34.5836 31.6109 35.5928 30.1141 36.2959 28.449C37.0254 26.7235 37.3959 24.8921 37.3959 23.0021C37.3959 21.1122 37.0254 19.2808 36.2959 17.5553ZM23.4045 36.0542C16.2075 36.0542 10.3505 30.1991 10.3505 23.0002C10.3505 15.8014 16.2075 9.94816 23.4045 9.94816C30.6015 9.94816 36.4584 15.8033 36.4584 23.0021C36.4584 30.201 30.6033 36.0561 23.4045 36.0561V36.0542Z" fill="white"/>
<path d="M10.8679 10.4605C11.0002 10.5588 11.0815 10.6212 11.1892 10.727C11.7827 11.3129 11.8432 12.1634 11.2648 12.8608C10.6468 13.6054 9.58277 13.7037 8.87025 13.1121C8.15584 12.5187 8.05379 11.4527 8.64723 10.7402C9.01956 10.2923 9.5771 10.0863 10.1176 10.143L10.0326 10.7535C9.69805 10.7251 9.32195 10.8385 9.09516 11.1125C8.72094 11.5642 8.81355 12.2654 9.26525 12.6396C9.71695 13.0138 10.4219 12.976 10.8339 12.4809C11.1533 12.0953 11.1458 11.6191 10.8774 11.328L10.112 12.2503L9.68104 11.8931L10.8698 10.4605H10.8679Z" fill="white"/>
<path d="M16.3872 8.0817L16.6612 8.55986L14.6314 9.72597L13.0117 6.90615L13.5504 6.59619L14.8941 8.93785L16.3853 8.0817H16.3872Z" fill="white"/>
<path d="M18.8306 6.01528C18.6775 5.10054 19.2105 4.24061 20.2122 4.07429C21.2195 3.90608 22.002 4.54489 22.1551 5.46152C22.3081 6.38193 21.7752 7.2362 20.7678 7.4044C19.7643 7.57261 18.9837 6.93758 18.8287 6.01717L18.8306 6.01528ZM19.4392 5.91322C19.5356 6.49533 20.095 6.93002 20.6733 6.83363C21.2554 6.73725 21.6391 6.14569 21.5427 5.56358C21.4463 4.98525 20.8926 4.55056 20.3086 4.64884C19.7302 4.74523 19.3428 5.33678 19.4392 5.91511V5.91322Z" fill="white"/>
<path d="M27.6135 5.91529V5.91907C27.9215 6.00034 28.2031 6.33486 28.1068 6.80546C27.9631 7.50664 27.4056 7.6087 26.8575 7.49719L25.457 7.20802L26.1128 4.02344L27.4661 4.30126C28.0501 4.42033 28.3978 4.73406 28.2655 5.37287C28.1975 5.70739 27.931 5.96632 27.6135 5.91529ZM27.5039 6.64671C27.5624 6.36321 27.3905 6.20256 27.0786 6.13642L26.3434 5.98522L26.1771 6.79412L26.9255 6.94721C27.226 7.00958 27.4472 6.92831 27.5057 6.64481L27.5039 6.64671ZM26.4549 5.4428L27.1391 5.58266C27.4528 5.64691 27.6002 5.52407 27.6513 5.27459C27.7004 5.03079 27.5587 4.88337 27.2979 4.83045L26.6099 4.6887L26.4549 5.44091V5.4428Z" fill="white"/>
<path d="M30.4082 8.64463L33.5455 6.77734L33.5985 6.81136L33.2734 10.4477L32.7026 10.0886L32.7593 9.52157L31.4628 8.70511L30.9809 9.00561L30.4101 8.64652L30.4082 8.64463ZM32.0071 8.40649L32.7933 8.90166L32.9256 7.82438L32.009 8.40649H32.0071Z" fill="white"/>
<path d="M37.1521 13.9043L36.7193 14.2444L35.2734 12.4036L37.8306 10.3965L38.2142 10.886L36.0918 12.5529L37.1539 13.9043H37.1521Z" fill="white"/>
<path d="M9.44475 35.3322L9.00817 35.6668L7.58691 33.807L10.1705 31.832L10.5485 32.3253L8.40338 33.9658L9.44853 35.3322H9.44475Z" fill="white"/>
<path d="M12.6768 37.2973L13.7182 35.6587L14.2436 35.9932L13.2022 37.6318C12.8525 38.1837 13.1701 38.5844 13.4139 38.7393C13.6577 38.8943 14.1566 39.0115 14.5082 38.4615L15.5495 36.8229L16.0749 37.1574L15.0336 38.796C14.5875 39.4972 13.8391 39.6579 13.1228 39.2024C12.4103 38.7488 12.2345 38.0004 12.6806 37.2992L12.6768 37.2973Z" fill="white"/>
<path d="M19.658 40.1247L18.7641 38.2744L19.5257 38.4237L20.1268 39.7372L21.1814 38.7488L21.9392 38.8981L20.4159 40.274L21.291 42.0846L20.5293 41.9353L19.9453 40.6671L18.9247 41.6215L18.1631 41.4722L19.658 40.1285V40.1247Z" fill="white"/>
<path d="M25.1479 40.792L24.8115 38.8813L25.4239 38.7736L25.7603 40.6862C25.8737 41.3288 26.3802 41.4119 26.6637 41.3609C26.9491 41.3099 27.3951 41.0604 27.2817 40.4178L26.9453 38.5052L27.5576 38.3975L27.8941 40.3101C28.0377 41.1285 27.5935 41.7521 26.7582 41.8996C25.9266 42.0451 25.2916 41.6123 25.1479 40.7939V40.792Z" fill="white"/>
<path d="M32.2077 38.8267L32.7426 39.7131L32.2134 40.0325L30.5332 37.2486L31.7957 36.4869C32.3627 36.1448 32.992 36.3036 33.3322 36.8668C33.5855 37.2845 33.5836 37.7985 33.2907 38.1047L34.5513 38.6207L33.9162 39.0043L32.735 38.5092L32.2058 38.8286L32.2077 38.8267ZM31.928 38.3617L32.5366 37.9951C32.9845 37.7248 32.9448 37.4168 32.803 37.1805C32.6405 36.9102 32.3476 36.7968 31.9563 37.0331L31.3478 37.3997L31.928 38.3617Z" fill="white"/>
<path d="M36.6787 31.853L37.4574 34.0907L38.4099 34.8694L38.0168 35.3513L37.0643 34.5727L34.7207 34.2457L35.18 33.6863L36.7656 33.9282L36.2194 32.4143L36.6787 31.8549V31.853Z" fill="white"/>
<path d="M23.4043 0.5C10.9986 0.5 0.904297 10.5943 0.904297 23C0.904297 35.4057 10.9986 45.5 23.4043 45.5C35.81 45.5 45.9043 35.4057 45.9043 23C45.9043 10.5943 35.8119 0.5 23.4043 0.5ZM44.4434 23C44.4434 34.6195 35.0238 44.0391 23.4043 44.0391C11.7848 44.0391 2.36524 34.6195 2.36524 23C2.36524 11.3805 11.7848 1.96094 23.4043 1.96094C35.0238 1.96094 44.4434 11.3805 44.4434 23Z" fill="white"/>
</g>
<defs>
<clipPath id="clip0_363_4674">
<rect width="45.0019" height="45" fill="white" transform="translate(0.904297 0.5)"/>
</clipPath>
</defs>
</svg>
