<svg width="177" height="32" viewBox="0 0 177 32" fill="none" xmlns="http://www.w3.org/2000/svg">
<path d="M133.651 10.1022C134.265 10.1022 134.732 9.60584 134.732 9.0219C134.732 8.40876 134.235 7.9416 133.651 7.9416C133.038 7.9416 132.571 8.43795 132.571 9.0219C132.571 9.60584 133.067 10.1022 133.651 10.1022ZM114.79 22.8613H111.491V14.7737H113.272C115.812 14.7737 116.046 15.8832 116.046 17.7226H116.425V11.2993H116.046C116.046 12.8759 115.812 14.3942 113.301 14.3942H111.491V6.59854H115.286C117.856 6.59854 119.695 7.53284 119.695 10.3358H120.075L119.783 6.21897H108.016V6.59854H109.038V22.8613H108.016V23.2409H121.009V18.2774H120.6C120.6 22.3942 118.702 22.8613 114.79 22.8613ZM134.848 12.7883C134.352 13.2847 133.593 13.3139 132.805 13.3139H131.987V13.6934H132.805V22.8321H131.987V23.2117H135.666V22.8321H134.848V12.7883ZM125.71 22.8613H124.892V5.45985C124.396 6.01459 123.637 6.07299 122.848 6.07299H122.031V6.45256H122.848V22.8613H122.031V23.2409H125.71V22.8613ZM130.732 22.8613H129.914V5.45985C129.418 6.01459 128.659 6.07299 127.87 6.07299H127.053V6.45256H127.87V22.8613H127.053V23.2409H130.732V22.8613ZM175.199 22.8613V15.5328C175.199 14.1022 174.469 12.7883 171.9 12.7883C170.148 12.7883 168.921 14.1022 168.308 15.2701H168.25V12.7883C167.812 13.3139 167.374 13.3139 166.206 13.3139H165.418V13.6934H166.206V22.8321H165.418V23.2117H168.98V22.8321H168.25V16.0292C168.688 15.2117 169.739 13.1679 171.754 13.1679C172.542 13.1679 173.184 13.6058 173.184 14.9197V22.8321H172.396V23.2117H176.016V22.8321H175.199V22.8613ZM161.009 21.1095C161.009 21.6058 160.221 22.9489 158.411 22.9489C156.863 22.9489 156.659 21.927 156.659 20.5839C156.659 17.9854 158.848 17.9562 160.629 17.9562H161.038V21.1095H161.009ZM163.754 23.0073C163.111 23.0073 163.024 22.3942 163.024 21.9562V15.6204C163.024 13.7518 160.834 12.8175 159.024 12.8175C156.6 12.8175 155.286 14.1606 155.286 15.4161C155.286 16.2336 155.666 16.7591 156.338 16.7591C156.98 16.7591 157.447 16.3212 157.447 15.7372C157.447 14.6569 156.659 14.9197 156.659 14.3358C156.659 13.4599 158.294 13.1971 158.994 13.1971C159.9 13.1971 160.98 13.4599 160.98 14.5985V17.5766H160.513C158.031 17.5766 154.411 18.2482 154.411 20.9635C154.411 22.5985 155.549 23.562 157.447 23.562C159.053 23.562 160.133 23.1533 160.951 22.073H161.009C161.184 22.9197 162.002 23.562 163.14 23.562C164.192 23.562 164.805 23.0657 165.272 22.2482L165.009 22.0438C164.659 22.5401 164.308 23.0073 163.754 23.0073ZM23.8704 14.4818V16.9635H20.5419V24C23.2864 22.7153 25.2718 20.0876 25.6222 16.9635H28.104C27.6368 22.3358 23.4032 26.6569 18.0602 27.2409V4.75912C23.228 5.31386 27.3448 9.37226 28.0456 14.4818H25.5346C25.0383 11.5912 23.1113 9.19708 20.5419 8V14.4818H23.8704ZM15.6076 27.2409C9.94337 26.6277 5.53461 21.8102 5.53461 16C5.53461 10.1898 9.94337 5.37226 15.6076 4.75912V27.2409ZM16.8047 2.9781C9.62221 2.9781 3.78279 8.81751 3.78279 16C3.78279 23.1825 9.62221 29.0219 16.8047 29.0219C23.9872 29.0219 29.8266 23.1825 29.8266 16C29.8266 8.81751 23.9872 2.9781 16.8047 2.9781ZM16.8047 30.3942C8.86308 30.3942 2.41053 23.9416 2.41053 16C2.41053 8.05839 8.86308 1.60584 16.8047 1.60584C24.7463 1.60584 31.1988 8.05839 31.1988 16C31.1988 23.9416 24.7463 30.3942 16.8047 30.3942ZM16.8047 0C7.98717 0 0.804688 7.18248 0.804688 16C0.804688 24.8175 7.98717 32 16.8047 32C25.6222 32 32.8047 24.8175 32.8047 16C32.8047 7.18248 25.6222 0 16.8047 0ZM13.1259 24.0292V8C10.0894 9.40146 8.01637 12.4671 8.01637 16C7.98717 19.562 10.0894 22.5985 13.1259 24.0292ZM140.133 22.8613H139.403V16.0292C140.104 14.3066 141.184 13.1679 142.644 13.1679C143.608 13.1679 144.221 13.635 144.221 14.8321V22.8321H143.432V23.2117H146.994V22.8321H146.265V16.3796C146.761 14.6861 147.987 13.1679 149.389 13.1679C150.294 13.1679 151.082 13.5474 151.082 15.2993V22.8321H150.294V23.2117H153.914V22.8321H153.126V15.7372C153.126 14.219 152.308 12.8175 149.827 12.7883C148.016 12.7591 146.79 13.9854 146.323 15.3869H146.265C146.06 13.2263 144.513 12.7883 142.965 12.7883C141.155 12.7883 140.133 13.9854 139.491 15.1533H139.432V12.7883C138.994 13.3139 138.557 13.3139 137.389 13.3139H136.6V13.6934H137.389V22.8321H136.6V23.2117H140.162V22.8613H140.133Z" fill="#666666"/>
<path d="M51.1703 11.27C51.0536 10.978 50.9076 10.6568 50.7616 10.3649C50.9076 10.6276 51.0536 10.9488 51.1703 11.27ZM42.82 22.7736H40.8054V6.65683H41.9149C48.2214 6.65683 48.9514 11.27 48.9514 14.7152C48.9806 21.3722 45.6521 22.7736 42.82 22.7736ZM43.5499 6.13128H37.0098V6.65683H38.2068V22.7736H37.0098V23.2992H43.5499C48.601 23.2992 51.8419 19.9415 51.8419 14.7152C51.8419 12.759 51.1995 10.686 50.1193 9.19698C48.6886 7.21158 46.4112 6.13128 43.5499 6.13128ZM95.6667 21.1094C95.6667 21.5473 94.9076 22.8904 93.1266 22.8904C91.6959 22.8904 91.4331 22.0437 91.4331 20.5838C91.4331 18.0145 93.6813 18.0145 95.3163 18.0145H95.6667V21.1094ZM99.6959 21.9853C99.3455 22.4816 99.0244 22.9196 98.4988 22.9196C98.0317 22.9196 97.8565 22.5984 97.8565 21.9269V15.5911C97.8565 14.7152 97.3893 13.9561 96.5134 13.4306C95.7543 12.9634 94.7616 12.7298 93.7689 12.7298C91.3163 12.7298 89.9733 14.1021 89.9733 15.3868C89.9733 16.2627 90.4112 16.8174 91.112 16.8174C91.7835 16.8174 92.2798 16.3503 92.2798 15.7371C92.2798 15.0656 91.9879 14.8904 91.7543 14.7152C91.6083 14.5984 91.4915 14.54 91.4915 14.3357C91.4915 13.5473 93.0682 13.2554 93.7689 13.2554C94.6448 13.2554 95.6959 13.4889 95.6959 14.5984V17.4889H95.3163C92.3382 17.4889 89.1557 18.3941 89.1557 20.9342C89.1557 22.5984 90.3236 23.5911 92.2506 23.5911C93.9149 23.5911 94.966 23.1532 95.7543 22.1313C95.9879 23.0072 96.8638 23.5911 97.9149 23.5911C98.8784 23.5911 99.5791 23.1532 100.105 22.2481L100.134 22.1897L99.7543 21.9269L99.6959 21.9853ZM117.302 29.343H119.988V28.5838H117.302V27.1824H120.192V26.3649H116.367V31.6787H120.251V30.8612H117.302V29.343ZM111.433 28.7882H109.915V27.124H111.433C111.929 27.124 112.367 27.27 112.367 27.9415C112.338 28.4962 112.017 28.7882 111.433 28.7882ZM112.397 29.1678C112.572 29.0802 113.273 28.8466 113.273 27.8247C113.273 26.9196 112.689 26.3941 111.521 26.3941H108.981V31.7079H109.915V29.5181H111.287C112.134 29.5181 112.338 29.9561 112.338 30.9196C112.338 31.1824 112.338 31.4744 112.484 31.7079H113.477C113.273 31.5035 113.185 30.9196 113.185 30.3065C113.185 29.4597 112.718 29.2262 112.397 29.1678ZM60.2214 19.0948C60.2214 21.4306 60.0171 23.0656 57.4769 23.0656C54.9368 23.0656 54.7324 21.4306 54.7324 19.0948V17.197C54.7324 14.8612 54.9368 13.2262 57.4769 13.2262C60.0171 13.2262 60.2214 14.8612 60.2214 17.197V19.0948ZM57.5061 12.7006C54.2652 12.7006 52.309 15.4744 52.309 18.1313C52.309 20.8174 54.2652 23.5619 57.5061 23.5619C60.747 23.5619 62.7032 20.7882 62.7032 18.1313C62.7032 15.4744 60.747 12.7006 57.5061 12.7006ZM78.5864 19.5911C76.6594 19.5911 76.6594 17.9853 76.6594 16.4087C76.6594 15.1532 76.6594 13.2262 78.5864 13.2262C80.5134 13.2262 80.5134 14.4816 80.5134 16.4087C80.5134 18.1021 80.5134 19.5911 78.5864 19.5911ZM80.9514 24.0583C82.4404 24.0583 83.1412 24.5546 83.1412 25.6057C83.1412 27.5327 81.3309 29.5181 78.3236 29.5181C75.0244 29.5181 74.7616 27.416 74.7616 26.7444C74.7616 25.2262 75.4331 24.3503 76.893 24.0291H80.9514V24.0583ZM83.2871 12.7006C82.4696 12.7006 81.8565 13.2262 81.4185 13.7225C80.747 13.0802 79.7543 12.7006 78.5864 12.7006C76.3382 12.7006 74.4988 14.4232 74.4988 16.5546C74.4988 17.9269 75.3163 18.686 76.2214 19.2992C74.674 19.3576 73.9441 20.1459 73.9441 21.7517C73.9441 23.1532 74.6156 23.9707 75.7835 24.0583C74.7032 24.5838 73.5061 25.6057 73.5061 26.8612C73.5061 29.2262 75.9587 30.0437 78.236 30.0437C79.7543 30.0437 81.1557 29.5765 82.1776 28.7006C83.3163 27.7663 83.9003 26.4233 83.9003 24.8758C83.9003 23.0072 82.9368 22.0145 81.1557 22.0145H75.4915C74.9076 22.0145 74.4988 21.6349 74.4988 21.0802C74.4988 20.1459 75.2579 19.6495 76.7762 19.6203C76.8054 19.6203 76.8346 19.6495 76.8638 19.6495C77.1558 19.7955 77.6813 20.0291 78.6156 20.0291C79.5499 20.0291 80.601 19.6495 81.3601 18.978C82.2068 18.2773 82.674 17.343 82.674 16.3795C82.674 15.5327 82.3236 14.5984 81.7397 13.9561C82.0317 13.5765 82.4696 13.2554 82.8492 13.1678C82.7616 13.3138 82.674 13.4889 82.674 13.8685C82.674 14.2773 83.0244 14.686 83.5207 14.686C83.9879 14.686 84.5426 14.4524 84.5426 13.7809C84.5718 13.1678 84.0755 12.7006 83.2871 12.7006ZM72.455 12.613L72.3382 12.7298C71.8711 13.197 71.112 13.2554 70.3528 13.2554H69.4769V13.7809H70.2652V19.4452C70.2652 21.2846 68.7178 23.0656 67.1412 23.0656C66.2652 23.0656 65.7105 22.4525 65.7105 21.4306V12.613L65.5937 12.7298C65.1266 13.197 64.3674 13.2554 63.6083 13.2554H62.7324V13.7809H63.5499V20.8466C63.5499 21.6641 63.8711 23.5911 66.9076 23.5911C68.9514 23.5911 69.9733 21.8393 70.2652 21.2554V23.2992H73.2433V22.7736H72.4258V12.613H72.455ZM87.6667 5.25537L87.5499 5.40136C87.0828 5.9269 86.3236 5.9853 85.5645 5.9853H84.6886V6.51084H85.5061V22.7736H84.6886V23.2992H88.4842V22.7736H87.6667V5.25537ZM104.659 16.8758L103.842 16.8174C102.119 16.7006 101.36 16.2043 101.36 15.0948C101.36 13.9561 102.207 13.2262 103.521 13.2262C105.535 13.2262 106.119 14.6276 106.265 15.7955V15.8539H106.703L106.616 12.8466H106.148V13.1094C106.148 13.4306 106.119 13.5473 106.061 13.5473C106.002 13.5473 105.856 13.4597 105.71 13.3722C105.273 13.1094 104.543 12.7006 103.608 12.7006C101.798 12.7006 100.513 14.0145 100.513 15.8831C100.513 18.5108 102.178 18.686 103.667 18.8612L103.9 18.8904C105.097 19.0072 106.324 19.1532 106.324 20.8758C106.324 22.1605 105.389 23.0656 104.046 23.0656C102.236 23.0656 101.097 21.8977 100.747 19.7079V19.6495H100.309L100.367 23.3576V23.416H100.864V23.3576C100.864 23.2408 100.893 23.124 100.893 23.0364C100.922 22.6568 100.922 22.5108 101.097 22.5108C101.243 22.5108 101.419 22.6276 101.623 22.7736C102.09 23.0948 102.791 23.5619 104.075 23.5619C106.061 23.5619 107.521 21.9561 107.521 19.7663C107.492 17.9561 106.528 16.9926 104.659 16.8758ZM124.484 29.5765L125.302 27.2992H125.331L126.119 29.5765H124.484ZM124.805 26.3649L122.762 31.6787H123.725L124.221 30.2773H126.353L126.849 31.6787H127.842L125.798 26.3649H124.805ZM172.397 29.343H175.083V28.5838H172.397V27.1824H175.287V26.3649H171.462V31.6787H175.346V30.8612H172.397V29.343ZM160.309 29.5765L161.127 27.2992H161.156L161.944 29.5765H160.309ZM160.63 26.3649L158.586 31.6787H159.55L160.046 30.2773H162.178L162.674 31.6787H163.667L161.623 26.3649H160.63ZM165.068 27.1824H166.762V31.7079H167.696V27.1824H169.389V26.3649H165.097V27.1824H165.068ZM131.55 26.3649H130.616V31.6787H134.236V30.8612H131.521V26.3649H131.55ZM150.09 28.7882C149.827 28.7006 148.63 28.4087 148.543 28.3795C148.163 28.2627 147.9 28.0583 147.9 27.7079C147.9 27.1824 148.455 27.0072 148.864 27.0072C149.506 27.0072 149.973 27.27 150.002 27.9415H150.937C150.937 26.832 150.002 26.2481 148.893 26.2481C147.929 26.2481 146.937 26.7444 146.937 27.8247C146.937 28.3795 147.2 28.9342 148.105 29.1678C148.835 29.3722 149.331 29.4598 149.681 29.6057C149.886 29.6933 150.119 29.8393 150.119 30.2481C150.119 30.6568 149.827 31.0656 148.981 31.0656C148.251 31.0656 147.637 30.7444 147.637 29.9269H146.703C146.732 31.2408 147.696 31.8247 148.922 31.8247C149.973 31.8247 151.024 31.3576 151.024 30.1605C151.112 29.6057 150.791 28.9926 150.09 28.7882ZM153.039 27.1824H154.732V31.7079H155.667V27.1824H157.36V26.3649H153.068V27.1824H153.039ZM140.951 29.343H143.638V28.5838H140.951V27.1824H143.842V26.3649H140.017V31.6787H143.9V30.8612H140.951V29.343ZM161.097 10.4816H161.681V8.17508H162.528V7.67873H160.251V8.17508H161.097V10.4816ZM166.616 10.4816H167.17V7.70792H166.732C166.732 7.73712 166.732 7.76632 166.703 7.82471C166.674 7.9123 166.645 7.9707 166.586 8.02909C166.528 8.08749 166.44 8.14588 166.324 8.17508C166.265 8.20428 166.148 8.20428 165.973 8.20428V8.58384H166.616V10.4816ZM171.9 10.4816H172.455V7.70792H171.988C171.988 7.73712 171.988 7.76632 171.959 7.82471C171.929 7.9123 171.9 7.9707 171.842 8.02909C171.783 8.08749 171.696 8.14588 171.579 8.17508C171.521 8.20428 171.404 8.20428 171.229 8.20428V8.58384H171.871V10.4816H171.9ZM156.513 9.9561H154.966V9.22618H156.338V8.72982H154.966V8.14588H156.455V7.64953H154.411V10.4524H156.543V9.9561H156.513ZM174.294 10.4816H174.849V7.70792H174.382C174.382 7.73712 174.382 7.76632 174.353 7.82471C174.324 7.9123 174.294 7.9707 174.236 8.02909C174.178 8.08749 174.09 8.14588 173.973 8.17508C173.915 8.20428 173.798 8.20428 173.623 8.20428V8.58384H174.265V10.4816H174.294ZM163.433 9.89771H162.849V10.4816H163.433V9.89771ZM169.156 8.23347C169.214 8.17507 169.302 8.14588 169.389 8.14588C169.506 8.14588 169.623 8.20427 169.681 8.29187C169.74 8.37946 169.798 8.49624 169.798 8.67142C169.798 8.8758 169.74 8.9926 169.623 9.08019C169.565 9.10939 169.477 9.13858 169.419 9.13858C169.273 9.13858 169.185 9.10938 169.097 9.02179C169.039 8.9342 169.01 8.81742 169.01 8.64223C169.01 8.43785 169.068 8.29186 169.156 8.23347ZM169.302 9.57654C169.448 9.57654 169.564 9.54734 169.681 9.48895C169.74 9.45975 169.798 9.40136 169.827 9.34296C169.827 9.54734 169.798 9.72253 169.74 9.81012C169.652 10.0145 169.535 10.1021 169.36 10.1021C169.273 10.1021 169.185 10.0729 169.127 10.0145C169.068 9.9561 169.039 9.89771 169.01 9.81012H168.455C168.484 10.0437 168.572 10.2189 168.747 10.3357C168.922 10.4524 169.097 10.5108 169.302 10.5108C169.74 10.5108 170.032 10.3065 170.207 9.86851C170.294 9.63493 170.324 9.37216 170.324 9.02179C170.324 8.67143 170.265 8.40866 170.178 8.20428C170.032 7.82472 169.74 7.64953 169.302 7.64953C169.039 7.64953 168.805 7.73712 168.63 7.91231C168.455 8.08749 168.367 8.32107 168.367 8.64223C168.367 8.93421 168.455 9.13858 168.63 9.28456C168.864 9.48894 169.068 9.57654 169.302 9.57654ZM158.791 10.0145C158.703 10.0437 158.586 10.0729 158.44 10.0729C158.207 10.0729 158.032 10.0145 157.944 9.89771C157.886 9.83931 157.856 9.75172 157.827 9.60573H157.273C157.273 9.89771 157.389 10.1313 157.594 10.3065C157.798 10.4816 158.09 10.5692 158.47 10.5692C158.82 10.5692 159.112 10.4816 159.316 10.3065C159.521 10.1313 159.608 9.92691 159.608 9.66413C159.608 9.40136 159.521 9.22618 159.346 9.08019C159.229 8.9926 159.083 8.9342 158.849 8.87581L158.353 8.75902C158.178 8.70063 158.032 8.67143 157.973 8.64223C157.886 8.58384 157.827 8.52544 157.827 8.40865C157.827 8.29186 157.886 8.20427 157.973 8.14588C158.061 8.08749 158.178 8.05829 158.353 8.05829C158.499 8.05829 158.616 8.08748 158.703 8.11668C158.849 8.17508 158.908 8.32106 158.937 8.46705H159.492C159.492 8.17508 159.375 7.9415 159.17 7.79551C158.966 7.64953 158.703 7.56194 158.411 7.56194C158.061 7.56194 157.769 7.64953 157.594 7.82471C157.419 7.99989 157.302 8.20427 157.302 8.43785C157.302 8.70062 157.389 8.90501 157.594 9.05099C157.71 9.13858 157.915 9.19697 158.207 9.25537L158.499 9.31376C158.674 9.34296 158.82 9.40135 158.878 9.43055C158.966 9.48894 158.995 9.54734 158.995 9.63493C159.054 9.86851 158.966 9.9561 158.791 10.0145Z" fill="#666666"/>
</svg>
