<svg width="240" height="48" viewBox="0 0 240 48" fill="none" xmlns="http://www.w3.org/2000/svg">
<path d="M104.758 24.8095C105.113 23.9457 105.29 22.8995 105.29 21.6805H107.378C107.378 23.5282 106.994 25.083 106.236 26.3356C106.577 26.6571 106.908 26.8779 107.229 26.9979C107.551 27.1178 107.935 27.1754 108.376 27.1754H108.885V29.1094H108.477C108.055 29.1094 107.68 29.095 107.359 29.0567C107.037 29.0231 106.74 28.956 106.466 28.8552C106.193 28.7544 105.938 28.62 105.703 28.4473C105.468 28.2793 105.209 28.0633 104.94 27.809C103.755 28.7928 102.219 29.2871 100.333 29.2871C98.6729 29.2871 97.382 28.9079 96.4653 28.1544C95.5487 27.401 95.0928 26.3356 95.0928 24.9632C95.0928 23.9985 95.3424 23.1634 95.8415 22.4676C96.3406 21.7717 97.1612 21.1286 98.2986 20.5336C97.7899 19.9385 97.4204 19.3819 97.19 18.854C96.9596 18.3261 96.8493 17.7934 96.8493 17.2511C96.8493 16.2337 97.1948 15.4131 97.8907 14.7844C98.5865 14.1557 99.5031 13.8438 100.64 13.8438C101.778 13.8438 102.694 14.1509 103.39 14.7604C104.086 15.3699 104.431 16.1857 104.431 17.2031C104.431 17.9662 104.201 18.6428 103.745 19.2379C103.284 19.833 102.531 20.4233 101.48 21.0184L104.763 24.8095H104.758ZM99.5175 21.9349C98.7881 22.3092 98.2602 22.7171 97.9291 23.1586C97.5979 23.6001 97.4348 24.1184 97.4348 24.7087C97.4348 25.5582 97.7419 26.2205 98.3514 26.7052C98.9608 27.1899 99.7767 27.4298 100.794 27.4298C101.878 27.4298 102.785 27.1323 103.515 26.5373L99.5223 21.9302L99.5175 21.9349ZM100.305 19.6698C101.034 19.2811 101.542 18.9068 101.83 18.5517C102.118 18.1965 102.262 17.7693 102.262 17.2799C102.262 16.7376 102.123 16.3249 101.84 16.0466C101.562 15.7682 101.168 15.629 100.655 15.629C100.141 15.629 99.7431 15.7586 99.4455 16.0226C99.148 16.2865 98.9992 16.656 98.9992 17.1311C98.9992 17.4863 99.0952 17.8606 99.292 18.2493C99.4887 18.638 99.8199 19.1131 100.295 19.6746L100.305 19.6698Z" fill="#666666"/>
<path d="M8.90625 14.3527H22.1371V16.949H11.7809V22.2903H20.611V24.8866H11.7809V30.8422H22.3675V33.4385H8.90625V14.3527ZM25.6261 14.3527H29.2397L38.4011 29.6473V14.3527H41.199V33.4385H37.5853L28.424 18.144V33.4385H25.6261V14.3527ZM54.1227 23.4613H62.4442V33.4385H60.3568L60.1264 30.3335C59.8529 30.895 59.4881 31.3989 59.0322 31.8452C58.5715 32.2963 58.0435 32.6755 57.4436 32.9922C56.839 33.3041 56.1815 33.5537 55.4568 33.7313C54.737 33.9088 53.9788 34 53.1822 34C51.8769 34 50.6867 33.7649 49.6213 33.2993C48.5511 32.8338 47.6344 32.1668 46.8714 31.3029C46.1083 30.4391 45.5133 29.3977 45.091 28.1836C44.6687 26.9694 44.4576 25.6161 44.4576 24.1236C44.4576 22.6311 44.6831 21.177 45.1342 19.91C45.5853 18.6479 46.2235 17.5633 47.0537 16.6659C47.884 15.7684 48.8822 15.0726 50.0435 14.5783C51.2049 14.0888 52.5006 13.8392 53.9259 13.8392C55.0297 13.8392 56.0471 13.988 56.9781 14.2855C57.9091 14.5831 58.7347 15.0102 59.4449 15.5717C60.1552 16.1332 60.7407 16.805 61.2014 17.5969C61.6621 18.3839 61.9739 19.2717 62.1419 20.2556H59.2146C58.893 19.1038 58.2499 18.1968 57.2949 17.5441C56.3351 16.8914 55.1785 16.5651 53.8204 16.5651C52.8702 16.5651 52.0064 16.7283 51.2242 17.0594C50.4419 17.3905 49.7748 17.8608 49.2133 18.4703C48.6518 19.0798 48.2199 19.8092 47.9176 20.6587C47.6104 21.5081 47.4617 22.4583 47.4617 23.5093V24.3251C47.4617 25.4097 47.6057 26.3839 47.8937 27.2382C48.1816 28.0972 48.599 28.8218 49.1413 29.4121C49.6836 30.0072 50.3412 30.4631 51.1138 30.7846C51.8865 31.1062 52.7551 31.2693 53.7197 31.2693C54.6171 31.2693 55.4521 31.135 56.2248 30.8614C56.9974 30.5927 57.6644 30.2184 58.2211 29.7433C58.7826 29.2681 59.2242 28.7067 59.5457 28.0636C59.8672 27.4205 60.0303 26.7151 60.0303 25.952H54.1275V23.4565L54.1227 23.4613ZM66.1348 14.3527H79.3656V16.949H69.0094V22.2903H77.8395V24.8866H69.0094V30.8422H79.596V33.4385H66.1348V14.3527ZM82.8546 14.3527H85.7292V30.8422H94.8617V33.4385H82.8497V14.3527H82.8546ZM109.345 14.3527H112.45L117.82 30.2568L123.19 14.3527H126.118L119.476 33.4385H116.016L109.35 14.3527H109.345ZM136.215 33.9952C134.842 33.9952 133.585 33.7505 132.448 33.2562C131.31 32.7667 130.331 32.0708 129.511 31.183C128.685 30.2903 128.052 29.2346 127.601 28.0012C127.149 26.7726 126.924 25.4097 126.924 23.9172C126.924 22.4247 127.154 21.0618 127.61 19.8332C128.071 18.6047 128.704 17.5441 129.52 16.6515C130.336 15.7588 131.31 15.0678 132.448 14.5783C133.585 14.0888 134.842 13.8392 136.215 13.8392C137.587 13.8392 138.845 14.084 139.982 14.5783C141.119 15.0726 142.094 15.7636 142.909 16.6515C143.725 17.5441 144.359 18.6047 144.819 19.8332C145.28 21.0618 145.506 22.4247 145.506 23.9172C145.506 25.4097 145.28 26.7726 144.829 28.0012C144.378 29.2298 143.744 30.2903 142.919 31.183C142.098 32.0756 141.115 32.7667 139.982 33.2562C138.845 33.7457 137.592 33.9952 136.215 33.9952ZM136.215 31.2741C137.165 31.2741 138.024 31.111 138.797 30.7798C139.569 30.4487 140.227 29.9784 140.769 29.3689C141.311 28.7594 141.739 28.03 142.041 27.1806C142.348 26.3311 142.502 25.3905 142.502 24.3539V23.4901C142.502 22.4535 142.348 21.5129 142.041 20.6635C141.734 19.814 141.307 19.0846 140.755 18.4751C140.203 17.8656 139.541 17.3953 138.768 17.0642C137.995 16.7331 137.146 16.5699 136.21 16.5699C135.274 16.5699 134.425 16.7331 133.652 17.0642C132.879 17.3953 132.217 17.8656 131.665 18.4751C131.113 19.0846 130.686 19.814 130.379 20.6635C130.072 21.5129 129.923 22.4535 129.923 23.4901V24.3539C129.923 25.3905 130.077 26.3311 130.379 27.1806C130.686 28.03 131.109 28.7594 131.651 29.3689C132.193 29.9784 132.855 30.4487 133.638 30.7798C134.42 31.111 135.274 31.2741 136.205 31.2741H136.215ZM132.016 10H134.813V12.7211H132.016V10ZM137.611 10H140.409V12.7211H137.611V10ZM148.755 14.3527H151.629V30.8422H160.762V33.4385H148.75V14.3527H148.755ZM163.617 14.3527H166.492V23.7397L175.73 14.3527H179.344L171.632 22.0888L179.646 33.4385H176.162L169.65 24.0756L166.492 27.2574V33.4385H163.617V14.3527ZM182.041 14.3527H195.272V16.949H184.915V22.2903H193.746V24.8866H184.915V30.8422H195.502V33.4385H182.041V14.3527ZM198.761 14.3527H207.591C208.488 14.3527 209.299 14.4775 210.019 14.7223C210.739 14.967 211.353 15.3173 211.862 15.7636C212.371 16.2148 212.764 16.7523 213.047 17.3809C213.326 18.0096 213.465 18.7151 213.465 19.4925C213.465 20.6107 213.182 21.5753 212.611 22.3815C212.044 23.1878 211.233 23.7876 210.182 24.1764C210.845 24.3635 211.348 24.6803 211.694 25.1314C212.04 25.5825 212.308 26.2448 212.495 27.1278L213.767 33.4385H210.816L209.669 27.5357C209.602 27.147 209.501 26.8254 209.376 26.5807C209.247 26.3359 209.079 26.1392 208.867 25.9952C208.656 25.8512 208.387 25.7505 208.066 25.6881C207.744 25.6257 207.337 25.5969 206.847 25.5969H201.63V33.4337H198.756V14.3527H198.761ZM206.981 23.183C208.066 23.183 208.939 22.8998 209.602 22.3287C210.264 21.7624 210.595 20.9946 210.595 20.0252C210.595 19.0558 210.269 18.2927 209.616 17.7217C208.963 17.1554 208.085 16.8674 206.981 16.8674H201.64V23.1782H206.981V23.183ZM218.609 27.5069C218.864 30.1368 220.62 31.4517 223.879 31.4517C226.811 31.4517 228.28 30.4007 228.28 28.2987C228.28 27.5501 228.078 26.9694 227.67 26.5423C227.262 26.12 226.557 25.7696 225.558 25.5009L220.798 24.1524C219.305 23.7301 218.206 23.1254 217.501 22.3479C216.795 21.5657 216.445 20.5483 216.445 19.2957C216.445 17.5633 217.055 16.2244 218.278 15.2741C219.497 14.3239 221.22 13.8488 223.442 13.8488C225.798 13.8488 227.598 14.3911 228.836 15.4757C230.074 16.5603 230.727 18.1584 230.794 20.2603H227.968C227.848 18.8878 227.435 17.8992 226.734 17.2945C226.029 16.6947 224.915 16.3923 223.389 16.3923C220.726 16.3923 219.396 17.2849 219.396 19.0654C219.396 19.7085 219.584 20.2268 219.958 20.6155C220.332 21.0042 220.966 21.3257 221.868 21.5849L226.624 22.9334C228.27 23.4085 229.45 24.0372 230.161 24.8146C230.871 25.5969 231.231 26.6575 231.231 27.9964C231.231 29.9112 230.583 31.3941 229.283 32.4355C227.987 33.4769 226.139 34 223.749 34C221.359 34 219.377 33.4433 218.01 32.3347C216.642 31.2262 215.903 29.6185 215.783 27.5117H218.609V27.5069Z" fill="#666666"/>
</svg>
