<svg width="221" height="36" viewBox="0 0 221 36" fill="none" xmlns="http://www.w3.org/2000/svg">
<g clip-path="url(#clip0_363_4647)">
<path d="M51.7158 22.1713V0.712891H52.9773L66.3609 16.9702L66.3036 0.712891H68.7841L68.8414 22.1713H67.7439L54.1944 5.77273V22.1713H51.7158Z" fill="#666666" stroke="#666666" stroke-width="0.0987863"/>
<path d="M87.8438 17.8764C87.3169 18.996 86.6932 19.889 85.9728 20.5555C84.5127 21.902 82.7266 22.5826 80.4595 22.5678C77.9503 22.554 75.9805 21.7173 74.5629 20.0735C73.1454 18.4296 72.4371 16.5863 72.4371 14.5029C72.4153 12.6041 73.0513 10.7563 74.2369 9.27314C75.7516 7.33169 77.788 6.35865 80.3459 6.354C82.9677 6.354 85.0652 7.35076 86.6386 9.34427C87.7588 10.747 88.3259 12.5894 88.3397 14.8437H74.6765C74.6627 16.4875 75.1873 17.834 76.2216 18.8831C77.2559 19.9322 78.546 20.5269 80.1049 20.6543C80.9004 20.723 81.701 20.6067 82.4441 20.3145C83.9881 19.7475 85.136 18.7981 85.5905 17.8764H87.8438ZM85.9866 12.9016C85.7742 11.8811 85.3633 11.0305 84.7537 10.3647C83.5061 9.0321 82.2031 8.39493 80.3745 8.40876C79.0557 8.42259 77.8515 8.87602 76.76 9.74139C75.9242 10.4072 75.2999 11.4563 74.8751 12.9025L85.9866 12.9016Z" fill="#666666" stroke="#666666" stroke-width="0.0987863"/>
<path d="M100.665 10.7188C98.9076 9.07404 97.4613 8.23831 96.3184 8.20966C95.6995 8.1822 95.0959 8.40714 94.6459 8.833C94.1638 9.2726 93.9228 9.76851 93.9376 10.3355C93.9599 10.863 94.1598 11.3674 94.5046 11.767C94.8583 12.2066 95.6377 12.7449 96.8143 13.3545C98.3731 14.1625 99.4222 14.8856 99.9606 15.509C100.576 16.2113 100.887 17.1291 100.825 18.0606C100.793 19.279 100.272 20.4333 99.3798 21.2633C98.4581 22.1277 97.3388 22.5673 96.0062 22.5673C95.1447 22.579 94.2933 22.3796 93.5267 21.9864C92.7819 21.6199 92.0852 21.163 91.4521 20.6261V18.0577C93.2807 19.6304 94.7684 20.4523 95.9163 20.5095C96.7105 20.5523 97.3767 20.3255 97.9147 19.8289C98.4393 19.335 98.705 18.766 98.705 18.1278C98.7042 17.5684 98.5047 17.0274 98.142 16.6016C97.816 16.1906 97.0079 15.6512 95.7326 14.9568C94.3713 14.2198 93.4219 13.5115 92.8974 12.8309C92.2879 12.0515 91.9481 11.2157 91.8917 10.3365C91.8206 9.16028 92.2032 8.16817 93.0396 7.3601C93.8754 6.56981 94.9956 6.2122 96.3845 6.31099C97.816 6.40978 99.2494 7.0914 100.65 8.3529L100.665 10.7188Z" fill="#666666" stroke="#666666" stroke-width="0.0987863"/>
<path d="M105.605 0.542969H107.73V6.482H110.381V8.3955H107.73V22.1713H105.605V8.40933H103.89V6.482H105.605V0.542969Z" fill="#666666" stroke="#666666" stroke-width="0.0987863"/>
<path d="M115.617 17.111C117.247 18.9681 118.763 20.0172 120.166 20.2859C120.887 20.4129 121.628 20.3544 122.32 20.116C123.043 19.875 123.582 19.464 123.936 18.9108C124.282 18.3885 124.473 17.7794 124.489 17.1534C124.508 16.387 124.234 15.6421 123.724 15.07C122.901 14.1207 121.626 13.0014 119.882 11.7399C118.111 10.4498 116.934 9.38685 116.326 8.52247C115.744 7.71143 115.457 6.73641 115.457 5.58851C115.445 4.6455 115.705 3.71908 116.208 2.92128C117.215 1.3486 118.689 0.667965 120.616 0.596839C121.586 0.554163 122.552 0.738894 123.437 1.13621C124.275 1.49333 125.039 2.00247 125.691 2.63777L125.719 5.68532C124.572 4.53743 123.621 3.80048 122.898 3.46066C122.175 3.12083 121.467 2.94993 120.815 2.94993C119.979 2.94993 119.27 3.19097 118.704 3.65922C118.139 4.09486 117.818 4.77422 117.838 5.48676C117.838 6.39461 118.264 7.30147 119.27 8.3081C119.539 8.5768 120.446 9.27127 121.963 10.3915C123.763 11.7231 125.025 12.9135 125.733 13.9478C126.442 14.9821 126.782 16.0312 126.782 17.0803C126.782 18.5967 126.19 19.9007 125.01 20.9923C123.831 22.0839 122.417 22.6361 120.772 22.6074C119.539 22.5936 118.533 22.3387 117.753 21.8566C116.999 21.391 116.283 20.8646 115.614 20.283L115.617 17.111Z" fill="#666666" stroke="#666666" stroke-width="0.0987863"/>
<path d="M145.438 17.8764C144.911 18.996 144.287 19.889 143.567 20.5555C142.106 21.902 140.321 22.5826 138.053 22.5678C135.545 22.554 133.574 21.7173 132.157 20.0735C130.739 18.4296 130.031 16.5863 130.031 14.5029C130.009 12.6041 130.645 10.7563 131.831 9.27314C133.345 7.33169 135.382 6.35865 137.94 6.354C140.563 6.354 142.661 7.35076 144.233 9.34427C145.353 10.747 145.92 12.5894 145.933 14.8437H132.27C132.256 16.4875 132.781 17.834 133.815 18.8831C134.85 19.9322 136.14 20.5269 137.699 20.6543C138.494 20.7231 139.295 20.6067 140.038 20.3145C141.583 19.7475 142.731 18.7981 143.184 17.8764H145.438ZM143.581 12.9016C143.368 11.8811 142.957 11.0305 142.347 10.3647C141.101 9.0321 139.797 8.39493 137.968 8.40876C136.65 8.42259 135.445 8.87602 134.354 9.74139C133.518 10.4072 132.894 11.4563 132.469 12.9025L143.581 12.9016Z" fill="#666666" stroke="#666666" stroke-width="0.0987863"/>
<path d="M164.303 17.8764C163.776 18.996 163.152 19.889 162.432 20.5555C160.972 21.902 159.186 22.5826 156.919 22.5678C154.409 22.554 152.44 21.7173 151.022 20.0735C149.604 18.4296 148.896 16.5863 148.896 14.5029C148.874 12.604 149.51 10.7561 150.696 9.27314C152.211 7.33169 154.247 6.35865 156.805 6.354C159.427 6.354 161.524 7.35076 163.098 9.34427C164.218 10.747 164.784 12.5894 164.799 14.8437H151.136C151.122 16.4875 151.645 17.834 152.681 18.8831C153.716 19.9322 155.005 20.5269 156.564 20.6543C157.359 20.7231 158.159 20.6067 158.902 20.3145C160.447 19.7475 161.595 18.7981 162.048 17.8764H164.303ZM162.446 12.9016C162.233 11.8811 161.822 11.0305 161.213 10.3647C159.965 9.0321 158.661 8.39493 156.834 8.40876C155.515 8.42259 154.311 8.87602 153.219 9.74139C152.382 10.4072 151.759 11.4563 151.334 12.9025L162.446 12.9016Z" fill="#666666" stroke="#666666" stroke-width="0.0987863"/>
<path d="M168.483 0.5H170.482V12.221L177.611 6.75021H180.815L173.487 12.462L181.041 22.1708H178.504L171.913 13.6672L170.482 14.8151V22.1708H168.483V0.5Z" fill="#666666" stroke="#666666" stroke-width="0.0987863"/>
<path d="M197.738 17.8764C197.211 18.996 196.588 19.889 195.867 20.5555C194.407 21.902 192.621 22.5826 190.354 22.5678C187.845 22.554 185.875 21.7173 184.457 20.0735C183.04 18.4296 182.337 16.5863 182.337 14.5029C182.314 12.604 182.95 10.7561 184.136 9.27314C185.651 7.33169 187.687 6.35865 190.245 6.354C192.867 6.354 194.965 7.35076 196.538 9.34427C197.658 10.747 198.224 12.5894 198.239 14.8437H184.571C184.556 16.4875 185.081 17.834 186.116 18.8831C187.151 19.9322 188.441 20.5269 189.999 20.6543C190.795 20.7231 191.595 20.6067 192.338 20.3145C193.883 19.7475 195.031 18.7981 195.484 17.8764H197.738ZM195.881 12.9016C195.669 11.8811 195.258 11.0305 194.648 10.3647C193.401 9.0321 192.097 8.39493 190.269 8.40876C188.95 8.42259 187.746 8.87602 186.654 9.74139C185.818 10.4072 185.194 11.4563 184.77 12.9025L195.881 12.9016Z" fill="#666666" stroke="#666666" stroke-width="0.0987863"/>
<path d="M201.067 6.75049H202.698L203.208 8.72622C204.113 7.65893 205.412 7.00407 206.808 6.91151C207.672 6.8552 208.694 7.13872 209.87 7.74823L209.062 9.47699C208.325 9.03739 207.603 8.825 206.894 8.81117C206.104 8.79635 205.306 9.19347 204.513 9.9729C203.72 10.7523 203.294 11.6454 203.252 12.5947C203.223 13.0343 203.209 14.4943 203.209 16.9601V22.176H201.068L201.067 6.75049Z" fill="#666666" stroke="#666666" stroke-width="0.0987863"/>
<path d="M220.741 10.7194C218.984 9.07458 217.537 8.23884 216.39 8.2102C215.771 8.18313 215.167 8.40797 214.717 8.83354C214.235 9.27314 213.994 9.76904 214.009 10.3361C214.032 10.8634 214.231 11.3676 214.576 11.7675C214.93 12.2071 215.71 12.7455 216.886 13.355C218.445 14.1631 219.493 14.8862 220.032 15.5095C220.647 16.212 220.958 17.1296 220.897 18.0612C220.865 19.2797 220.344 20.4339 219.451 21.2638C218.53 22.1282 217.41 22.5678 216.078 22.5678C215.217 22.5795 214.365 22.38 213.598 21.9869C212.855 21.62 212.16 21.1632 211.528 20.6267V18.0582C213.357 19.6309 214.845 20.4528 215.993 20.5101C216.784 20.5529 217.45 20.326 217.991 19.8294C218.515 19.3355 218.781 18.7665 218.781 18.1283C218.78 17.567 218.579 17.0245 218.214 16.5981C217.888 16.1872 217.08 15.6478 215.805 14.9534C214.444 14.2164 213.494 13.5081 212.97 12.8275C212.361 12.048 212.02 11.2123 211.964 10.3331C211.893 9.15687 212.275 8.16475 213.112 7.35668C213.948 6.56639 215.068 6.20878 216.457 6.30757C217.888 6.40636 219.322 7.08798 220.723 8.34948L220.741 10.7194Z" fill="#666666" stroke="#666666" stroke-width="0.0987863"/>
<path d="M52.0371 35.3587V29.5234H52.7582V35.3587H52.0371Z" fill="#666666" stroke="#666666" stroke-width="0.0987863"/>
<path d="M66.5742 35.3587L63.5405 30.9134V35.3587H62.8193V29.5234H63.5336L66.5584 33.9817V29.5234H67.2993V35.3587H66.5742Z" fill="#666666" stroke="#666666" stroke-width="0.0987863"/>
<path d="M79.3168 30.376V35.3587H78.6026V30.376H76.8086V29.5234H81.09V30.376H79.3168Z" fill="#666666" stroke="#666666" stroke-width="0.0987863"/>
<path d="M90.6504 35.3587V29.5234H94.7895V30.3839H91.3854V31.9141H93.0973V32.7587H91.3854V34.5112H94.918V35.3637L90.6504 35.3587Z" fill="#666666" stroke="#666666" stroke-width="0.0987863"/>
<path d="M107.883 32.9108L108.928 35.3587H108.099L107.087 32.9414H105.211V35.3587H104.477V29.5234H107.456C108.373 29.5234 109.037 30.133 109.037 31.2443C109.042 32.1284 108.611 32.7044 107.883 32.9108ZM107.458 30.3681H105.213V32.0889H107.456C107.95 32.0889 108.312 31.8153 108.312 31.1998C108.312 30.5844 107.937 30.3681 107.456 30.3681H107.458Z" fill="#666666" stroke="#666666" stroke-width="0.0987863"/>
<path d="M122.364 35.3587L119.331 30.9134V35.3587H118.608V29.5234H119.324L122.35 33.9817V29.5234H123.092V35.3587H122.364Z" fill="#666666" stroke="#666666" stroke-width="0.0987863"/>
<path d="M136.833 35.3587L136.112 33.458H133.854L133.105 35.3587H132.31L134.595 29.5303H135.404L137.656 35.3587H136.833ZM134.986 30.5636L134.195 32.5976H135.787L134.986 30.5636Z" fill="#666666" stroke="#666666" stroke-width="0.0987863"/>
<path d="M148.833 30.376V35.3587H148.119V30.376H146.326V29.5234H150.607V30.376H148.833Z" fill="#666666" stroke="#666666" stroke-width="0.0987863"/>
<path d="M160.109 35.3587V29.5234H160.832V35.3587H160.109Z" fill="#666666" stroke="#666666" stroke-width="0.0987863"/>
<path d="M173.248 35.4995C171.724 35.4995 170.545 34.1165 170.545 32.3542C170.545 30.6412 171.812 29.3501 173.255 29.3501C174.744 29.3501 175.958 30.7035 175.958 32.448C175.957 34.1689 174.704 35.4995 173.248 35.4995ZM173.248 30.2115C172.128 30.2115 171.266 31.1421 171.266 32.4559C171.266 33.7155 172.204 34.6391 173.255 34.6391C174.333 34.6391 175.23 33.669 175.23 32.4016C175.229 31.1233 174.319 30.2115 173.248 30.2115Z" fill="#666666" stroke="#666666" stroke-width="0.0987863"/>
<path d="M189.509 35.3587L186.475 30.9134V35.3587H185.754V29.5234H186.468L189.495 33.9817V29.5234H190.239V35.3587H189.509Z" fill="#666666" stroke="#666666" stroke-width="0.0987863"/>
<path d="M203.977 35.3587L203.256 33.458H200.998L200.249 35.3587H199.459L201.744 29.5303H202.553L204.805 35.3587H203.977ZM202.13 30.5636L201.34 32.5976H202.931L202.13 30.5636Z" fill="#666666" stroke="#666666" stroke-width="0.0987863"/>
<path d="M214.117 35.3587V29.5234H214.852V34.5062H217.915V35.3587H214.117Z" fill="#666666" stroke="#666666" stroke-width="0.0987863"/>
<path d="M28.6744 17.6054V18.3937H33.081C32.8712 26.29 26.3821 32.6484 18.4366 32.6484C15.0742 32.6468 11.8144 31.4898 9.2036 29.3713V12.8378L28.4588 28.636V6.25731L28.3161 6.13817C25.5414 3.82934 22.0462 2.56438 18.4366 2.5625C9.92385 2.5625 2.99902 9.48801 2.99902 17.9995V18.3937H8.19785V17.6054H3.79307C4.0019 9.71108 10.491 3.35081 18.4366 3.35081C21.7992 3.3524 25.0591 4.50938 27.6705 6.62776V23.1623L8.41518 7.3651V29.7428L8.55704 29.8609C11.3319 32.1699 14.8276 33.4346 18.4376 33.4357C26.9503 33.4357 33.875 26.5102 33.875 17.9987V17.6045L28.6744 17.6054Z" fill="#666666" stroke="#666666" stroke-width="0.0987863"/>
<path d="M18.4365 0.5C8.78668 0.5 0.936523 8.35085 0.936523 17.9995C0.936523 27.6482 8.78668 35.5 18.4365 35.5C28.0864 35.5 35.9365 27.6492 35.9365 17.9995C35.9365 8.34996 28.0911 0.5 18.4365 0.5ZM18.4365 34.5718C9.29898 34.5699 1.86472 27.1377 1.86472 17.9995C1.86472 8.86127 9.29898 1.4282 18.4365 1.4282C27.5741 1.4282 35.0092 8.86039 35.0092 17.9995C35.0092 27.1387 27.5741 34.5699 18.4365 34.5699V34.5718Z" fill="#666666" stroke="#666666" stroke-width="0.0987863"/>
</g>
<defs>
<clipPath id="clip0_363_4647">
<rect width="219.968" height="35" fill="white" transform="translate(0.936523 0.5)"/>
</clipPath>
</defs>
</svg>
