<svg width="175" height="32" viewBox="0 0 175 32" fill="none" xmlns="http://www.w3.org/2000/svg">
<g clip-path="url(#clip0_363_4603)">
<path d="M24.0463 11.1831V10.957C24.0463 8.01702 23.1409 5.52939 21.3303 3.83328C19.2933 1.91102 16.2378 0.893348 12.6165 0.893348H0.507812V31.5365H7.41092V21.5859H11.3717L17.2563 31.5365H25.0648L18.2748 20.229C20.8776 18.9852 24.0463 16.4976 24.0463 11.1831ZM17.1432 11.2962C17.1432 14.123 15.2193 15.8191 12.0507 15.8191H7.41092V6.88628H12.0507C15.3325 6.88628 17.1432 8.35624 17.1432 11.2962ZM121.029 0.780273L109.486 31.5365H116.389L118.766 24.9782H129.517L131.893 31.5365H139.023L127.48 0.780273H121.029ZM127.367 19.2114H120.803L124.085 9.82621L127.367 19.2114ZM159.053 15.9322L168.219 1.00642H160.637L155.205 10.7308L149.886 1.00642H141.965L151.018 16.0453L141.512 31.6495H149.094L154.866 21.3598L160.637 31.6495H168.446L159.053 15.9322ZM38.192 25.6566V19.0983H50.527V13.2184H38.192V6.88628H52.1113V0.893348H31.402V31.5365H44.3029L47.4716 25.6566H38.192ZM97.0381 0.893348L90.135 10.8439L83.1187 0.893348H83.0056L75.9893 14.2361V31.5365H82.6661V12.54L89.9087 21.9251V22.0382H90.2482L97.6039 12.54V31.5365H104.281V0.893348H97.0381Z" fill="#666666"/>
<path d="M67.502 0.780273L51.3193 31.4234H59.6936L75.8763 0.780273H67.502Z" fill="#666666"/>
<path d="M171.841 14.0488C170.597 14.0488 169.578 15.0665 169.578 16.3103C169.578 17.5541 170.597 18.5718 171.841 18.5718C173.086 18.5718 174.105 17.5541 174.105 16.3103C174.105 15.0665 173.086 14.0488 171.841 14.0488ZM171.841 18.2326C170.823 18.2326 170.031 17.4411 170.031 16.3103C170.031 15.2926 170.823 14.3881 171.841 14.3881C172.86 14.3881 173.652 15.2926 173.652 16.3103C173.652 17.328 172.86 18.2326 171.841 18.2326ZM172.294 16.4234C172.52 16.3103 172.747 16.0842 172.747 15.7449C172.747 15.5188 172.634 15.2926 172.52 15.1796C172.407 15.0665 172.068 14.9534 171.728 14.9534C171.389 14.9534 171.162 14.9534 171.049 15.0665V17.5541H171.502V16.4234H171.841C172.181 16.4234 172.294 16.5365 172.407 16.8757C172.407 17.2149 172.52 17.4411 172.634 17.5541H173.086C173.086 17.4411 172.973 17.328 172.973 16.9888C172.634 16.6495 172.52 16.4234 172.294 16.4234ZM171.728 16.1972H171.389V15.4057C171.502 15.4057 171.502 15.4057 171.728 15.4057C172.181 15.4057 172.407 15.6319 172.407 15.858C172.294 16.0842 172.068 16.1972 171.728 16.1972Z" fill="#666666"/>
</g>
<defs>
<clipPath id="clip0_363_4603">
<rect width="174.049" height="32" fill="white" transform="translate(0.507812)"/>
</clipPath>
</defs>
</svg>
