<svg width="136" height="50" viewBox="0 0 136 50" fill="none" xmlns="http://www.w3.org/2000/svg">
<g clip-path="url(#clip0_347_370)">
<path d="M66.6303 5.22168H5.69189V14.4175H66.6303V5.22168Z" fill="#666666"/>
<path d="M128.912 5.22168V14.4175H130.071V5.22168H128.912Z" fill="#666666"/>
<path d="M69.6509 5.22168V14.4175H70.807V5.22168H69.6509Z" fill="#666666"/>
<path d="M72.4741 5.22168V14.4175H73.6302V5.22168H72.4741Z" fill="#666666"/>
<path d="M75.2925 5.22168V14.4175H76.451V5.22168H75.2925Z" fill="#666666"/>
<path d="M78.1133 5.22168V14.4175H79.2718V5.22168H78.1133Z" fill="#666666"/>
<path d="M80.9365 5.22168V14.4175H82.0926V5.22168H80.9365Z" fill="#666666"/>
<path d="M83.7598 5.22168V14.4175H84.9207V5.22168H83.7598Z" fill="#666666"/>
<path d="M86.583 5.22168V14.4175H87.7415V5.22168H86.583Z" fill="#666666"/>
<path d="M89.4038 5.22168V14.4175H90.5623V5.22168H89.4038Z" fill="#666666"/>
<path d="M92.2271 5.22168V14.4175H93.3856V5.22168H92.2271Z" fill="#666666"/>
<path d="M95.0479 5.22168V14.4175H96.2064V5.22168H95.0479Z" fill="#666666"/>
<path d="M97.8711 5.22168V14.4175H99.0272V5.22168H97.8711Z" fill="#666666"/>
<path d="M100.692 5.22168V14.4175H101.848V5.22168H100.692Z" fill="#666666"/>
<path d="M103.515 5.22168V14.4175H104.669V5.22168H103.515Z" fill="#666666"/>
<path d="M106.336 5.22168V14.4175H107.494V5.22168H106.336Z" fill="#666666"/>
<path d="M109.159 5.22168V14.4175H110.318V5.22168H109.159Z" fill="#666666"/>
<path d="M111.982 5.22168V14.4175H113.138V5.22168H111.982Z" fill="#666666"/>
<path d="M114.803 5.22168V14.4175H115.959V5.22168H114.803Z" fill="#666666"/>
<path d="M117.624 5.22168V14.4175H118.783V5.22168H117.624Z" fill="#666666"/>
<path d="M120.447 5.22168V14.4175H121.606V5.22168H120.447Z" fill="#666666"/>
<path d="M123.271 5.22168V14.4175H124.427V5.22168H123.271Z" fill="#666666"/>
<path d="M126.091 5.22168V14.4175H127.25V5.22168H126.091Z" fill="#666666"/>
<path d="M66.6303 35.5635H5.69189V44.7593H66.6303V35.5635Z" fill="#666666"/>
<path d="M128.912 35.5635V44.7593H130.071V35.5635H128.912Z" fill="#666666"/>
<path d="M69.6509 35.5635V44.7593H70.807V35.5635H69.6509Z" fill="#666666"/>
<path d="M72.4741 35.5635V44.7593H73.6302V35.5635H72.4741Z" fill="#666666"/>
<path d="M75.2925 35.5635V44.7593H76.451V35.5635H75.2925Z" fill="#666666"/>
<path d="M78.1133 35.5635V44.7593H79.2718V35.5635H78.1133Z" fill="#666666"/>
<path d="M80.9365 35.5635V44.7593H82.0926V35.5635H80.9365Z" fill="#666666"/>
<path d="M83.7598 35.5635V44.7593H84.9207V35.5635H83.7598Z" fill="#666666"/>
<path d="M86.583 35.5635V44.7593H87.7415V35.5635H86.583Z" fill="#666666"/>
<path d="M89.4038 35.5635V44.7593H90.5623V35.5635H89.4038Z" fill="#666666"/>
<path d="M92.2271 35.5635V44.7593H93.3856V35.5635H92.2271Z" fill="#666666"/>
<path d="M95.0479 35.5635V44.7593H96.2064V35.5635H95.0479Z" fill="#666666"/>
<path d="M97.8711 35.5635V44.7593H99.0272V35.5635H97.8711Z" fill="#666666"/>
<path d="M100.692 35.5635V44.7593H101.848V35.5635H100.692Z" fill="#666666"/>
<path d="M103.515 35.5635V44.7593H104.669V35.5635H103.515Z" fill="#666666"/>
<path d="M106.336 35.5635V44.7593H107.494V35.5635H106.336Z" fill="#666666"/>
<path d="M109.159 35.5635V44.7593H110.318V35.5635H109.159Z" fill="#666666"/>
<path d="M111.982 35.5635V44.7593H113.138V35.5635H111.982Z" fill="#666666"/>
<path d="M114.803 35.5635V44.7593H115.959V35.5635H114.803Z" fill="#666666"/>
<path d="M117.624 35.5635V44.7593H118.783V35.5635H117.624Z" fill="#666666"/>
<path d="M120.447 35.5635V44.7593H121.606V35.5635H120.447Z" fill="#666666"/>
<path d="M123.271 35.5635V44.7593H124.427V35.5635H123.271Z" fill="#666666"/>
<path d="M126.091 35.5635V44.7593H127.25V35.5635H126.091Z" fill="#666666"/>
<path d="M8.50049 24.1409H9.96322C10.7299 24.1409 11.4771 23.8119 11.4771 22.8594C11.4771 22.0223 10.9392 21.5952 9.89751 21.5952H8.49805V24.1409H8.50049ZM10.6982 19.543C12.9787 19.543 14.3295 21.0846 14.3295 22.7613C14.3295 23.9936 13.6943 24.9117 12.4238 25.5033C13.5629 26.0777 13.906 27.4573 15.4686 30.7395H12.4238C11.2361 28.3435 10.798 26.1907 9.29879 26.1907H8.50049V30.7395H5.73322V19.543H10.6958H10.6982Z" fill="#666666"/>
<path d="M22.0642 21.7281C19.9468 21.7281 18.5473 23.093 18.5473 25.1452C18.5473 27.1975 19.9492 28.5599 22.0642 28.5599C24.1792 28.5599 25.564 27.1975 25.564 25.1452C25.564 23.093 24.1646 21.7281 22.0642 21.7281ZM22.0642 30.8895C17.9948 30.8895 15.6997 27.9977 15.6997 25.1428C15.6997 22.4326 17.8804 19.3936 22.0642 19.3936C26.248 19.3936 28.4141 22.4498 28.4141 25.1428C28.4141 28.0149 26.0532 30.8895 22.0642 30.8895Z" fill="#666666"/>
<path d="M32.301 25.5033L27.9225 19.543H31.2764L33.6834 23.0583L36.11 19.543H39.4468L35.0683 25.5033V30.7419H32.301V25.5033Z" fill="#666666"/>
<path d="M43.4697 22.2182L41.8415 26.5706H45.261L43.4697 22.2182ZM49.9632 30.7414H46.9842L46.0739 28.5247H41.1089L40.279 30.7414H37.3486L41.8269 19.5449H45.0323L49.9656 30.7414H49.9632Z" fill="#666666"/>
<path d="M59.9178 30.7419H51.4553V19.543H54.2226V28.6872H59.9178V30.7419Z" fill="#666666"/>
<path d="M73.4426 30.7419H64.9777V19.543H67.7426V28.6872H73.4426V30.7419Z" fill="#666666"/>
<path d="M81.596 30.7415H75.1001V21.8574H81.5035V23.4874H77.293V25.3482H81.3112V26.9782H77.293V29.1139H81.596V30.7415Z" fill="#666666"/>
<path d="M86.4295 24.19H87.7146C88.9851 24.19 89.4402 23.7309 89.4402 22.8938C89.4402 21.9413 88.9023 21.5952 87.4055 21.5952H86.432V24.19H86.4295ZM88.6078 19.543C91.1463 19.543 92.2878 21.3325 92.2878 22.8594C92.2878 24.3864 91.1828 26.2422 88.6249 26.2422H86.4295V30.7395H83.6574V19.543H88.6078Z" fill="#666666"/>
<path d="M97.3306 22.2182L95.7048 26.5706H99.1219L97.3306 22.2182ZM103.826 30.7414H100.847L99.9372 28.5247H94.9697L94.1398 30.7414H91.2095L95.6853 19.5449H98.8931L103.824 30.7414H103.826Z" fill="#666666"/>
<path d="M114.823 22.7612C113.409 22.0714 112.041 21.7253 110.671 21.7253C107.658 21.7253 106.604 23.5983 106.604 25.2578C106.604 27.2438 108.149 28.5571 110.444 28.5571C111.128 28.5571 111.469 28.4908 112.282 28.1643V26.851H110.671V24.7987H115.052V29.3795C114.219 30.2509 112.17 30.8916 110.379 30.8916C106.501 30.8916 103.751 28.5104 103.751 25.1596C103.751 21.8088 106.487 19.3957 110.444 19.3957C112.104 19.3957 113.718 19.7737 114.823 20.3162V22.7637V22.7612Z" fill="#666666"/>
<path d="M125.188 30.7419H116.998V19.543H125.188V21.5952H119.771V23.9445H124.831V25.9967H119.771V28.6872H125.188V30.7419Z" fill="#666666"/>
<path d="M126.111 20.7625C126.111 20.382 126.198 20.031 126.371 19.7045C126.546 19.378 126.787 19.1227 127.097 18.9361C127.406 18.7495 127.739 18.6562 128.097 18.6562C128.455 18.6562 128.788 18.7495 129.097 18.9361C129.406 19.1227 129.647 19.3804 129.82 19.7045C129.995 20.031 130.08 20.382 130.08 20.7625C130.08 21.143 129.993 21.5014 129.815 21.8279C129.637 22.1544 129.397 22.4097 129.09 22.5963C128.783 22.7828 128.452 22.8761 128.097 22.8761C127.742 22.8761 127.403 22.7828 127.097 22.5938C126.79 22.4048 126.549 22.1495 126.374 21.823C126.198 21.4965 126.111 21.1454 126.111 20.7625ZM126.452 20.7625C126.452 21.0718 126.522 21.3615 126.661 21.6315C126.8 21.9015 126.997 22.1151 127.252 22.2796C127.508 22.4416 127.79 22.5226 128.097 22.5226C128.404 22.5226 128.683 22.4416 128.937 22.2796C129.192 22.1176 129.389 21.9015 129.528 21.634C129.667 21.3664 129.737 21.0743 129.737 20.7625C129.737 20.4507 129.667 20.1611 129.528 19.8935C129.389 19.6259 129.19 19.4123 128.934 19.2503C128.679 19.0908 128.399 19.0097 128.094 19.0097C127.79 19.0097 127.522 19.0858 127.269 19.2405C127.014 19.3952 126.814 19.6063 126.671 19.8788C126.525 20.1488 126.452 20.4458 126.452 20.7649V20.7625ZM127.693 20.9761V21.9261H127.272V19.5302H128.058C128.345 19.5302 128.569 19.5965 128.727 19.7266C128.885 19.8591 128.966 20.0408 128.966 20.274C128.966 20.4802 128.866 20.6398 128.666 20.7527C128.773 20.814 128.849 20.8951 128.893 21.0006C128.937 21.1062 128.956 21.2363 128.956 21.3909C128.956 21.5456 128.958 21.6561 128.966 21.7199C128.973 21.7837 128.985 21.8377 129.002 21.8794V21.9236H128.569C128.545 21.8598 128.533 21.6781 128.533 21.3762C128.533 21.2338 128.501 21.1307 128.44 21.0669C128.379 21.0031 128.277 20.9736 128.133 20.9736H127.69L127.693 20.9761ZM127.693 20.598H128.051C128.192 20.598 128.311 20.5686 128.404 20.5096C128.496 20.4507 128.545 20.3722 128.545 20.2715C128.545 20.139 128.511 20.0457 128.445 19.9917C128.379 19.9352 128.26 19.9082 128.085 19.9058H127.69V20.6005L127.693 20.598Z" fill="#666666"/>
</g>
<defs>
<clipPath id="clip0_347_370">
<rect width="135" height="50" fill="white" transform="translate(0.507812)"/>
</clipPath>
</defs>
</svg>
