<svg width="131" height="46" viewBox="0 0 131 46" fill="none" xmlns="http://www.w3.org/2000/svg">
<g clip-path="url(#clip0_347_359)">
<path d="M117.086 7.28769L113.982 14.77H114.711L120.609 7.28769H117.086Z" fill="#666666"/>
<path d="M7.32274 25.4215C5.57791 25.4337 3.85452 25.0383 2.29093 24.267L1.00071 25.4215H0.40423L0.0078125 18.1031L0.701538 18.0379C2.78831 22.7847 5.23784 24.3005 7.52095 24.3005C9.90503 24.3005 11.2962 22.753 11.2962 20.6748C11.2962 18.6971 10.5333 17.74 7.42371 16.4551C6.3635 16.0268 5.13874 15.5985 4.11218 15.1031C1.79541 13.9504 0.570645 12.1366 0.570645 9.73067C0.570645 5.80702 3.97942 3.43272 7.32274 3.43272C8.97758 3.43272 10.1032 3.89454 11.1971 4.5221L12.4873 3.40479H13.0483L13.6092 9.86475L12.9473 9.9653C11.1261 6.33774 9.17391 4.56493 7.02169 4.56493C5.13499 4.56493 3.87657 5.81819 3.87657 7.76233C3.87657 9.31167 4.53851 10.4998 6.88893 11.5221C8.04825 12.0491 9.40578 12.5109 10.6287 13.1031C13.3082 14.3899 14.5685 16.0715 14.5685 18.5035C14.5685 22.8536 10.8923 25.4253 7.31714 25.4253" fill="#666666"/>
<path d="M24.8356 10.4552C22.5169 10.4552 21.0958 13.0269 21.0958 17.5427C21.0958 21.9933 22.6198 24.5297 24.9683 24.5297C27.3861 24.5297 28.7081 21.9617 28.7081 17.444C28.7081 12.9952 27.2851 10.4552 24.8356 10.4552ZM24.7009 25.4552C19.671 25.4552 17.1878 21.8611 17.1878 17.4775C17.1878 13.4217 20.0337 9.53339 25.1329 9.53339C30.1647 9.53339 32.5805 13.092 32.5805 17.444C32.5805 21.5408 29.8001 25.4514 24.7009 25.4514" fill="#666666"/>
<path d="M39.7649 25.323C37.1471 25.323 36.3225 24.0381 36.3225 21.6638V11.8072H33.873V11.3416L36.9171 8.93565L39.3348 5.80344H39.8266V10.0865H44.8603V11.8016H39.8266V20.3397C39.8266 21.6582 40.0248 22.4496 40.6886 22.9114C41.2496 23.3081 42.0125 23.4384 43.1045 23.4384C43.6337 23.4384 44.2975 23.4049 44.9257 23.3733L44.9575 23.8351C43.6673 24.6247 41.5488 25.3249 39.7612 25.3249" fill="#666666"/>
<path d="M55.225 12.0381C54.0259 12.0243 52.8423 12.3078 51.7807 12.863V23.7736L53.6356 24.4645V24.9356H46.1561V24.4719L48.241 23.7736V3.86114L45.9579 2.37139V2.04923L51.6517 0.499878L51.7826 0.598574V12.1442L51.9153 12.2094C53.8693 10.3639 55.655 9.54084 57.4445 9.54084C60.4232 9.54084 61.6816 11.7755 61.6816 14.1218V23.7811L63.7609 24.4645V24.9356H56.2815V24.4719L58.1364 23.7811V15.4664C58.1364 13.323 57.2744 12.0381 55.2231 12.0381" fill="#666666"/>
<path d="M75.2531 15.2357C75.1222 12.137 74.2284 10.4554 72.2744 10.4554C70.3541 10.4554 68.8638 12.4666 68.6992 15.5317L75.2531 15.2357ZM68.6656 16.353C68.6656 20.5392 69.8586 23.2766 73.5983 23.2766C75.2531 23.2766 76.6106 22.947 78.5983 22.2208L78.7965 22.6174C76.7771 24.3623 74.5257 25.4517 72.4072 25.4517C67.8728 25.4517 64.8922 22.353 64.8922 17.7701C64.8922 13.0569 68.4674 9.52988 72.5063 9.52988C76.8762 9.52988 78.9947 12.4628 78.9611 16.353H68.6656Z" fill="#666666"/>
<path d="M88.3289 11.8407C87.4293 11.8362 86.5383 12.0156 85.7111 12.3677V22.8183C86.179 23.3 86.7399 23.6825 87.3601 23.9427C87.9803 24.2029 88.647 24.3354 89.3199 24.3323C91.2721 24.3323 92.8933 22.5874 92.8933 17.9394C92.8933 13.8518 91.1393 11.8407 88.3252 11.8407M87.7642 25.4552C86.0439 25.4552 83.759 25.0585 82.1714 24.5967V3.86301L79.8547 2.37325V2.04923L85.5802 0.499878L85.713 0.598574V11.6414L85.8457 11.7084C87.0032 10.5539 88.5926 9.5334 90.6438 9.5334C93.7908 9.5334 96.6367 12.4012 96.6367 17.1144C96.6367 21.8276 93.0616 25.4552 87.7642 25.4552Z" fill="#666666"/>
<path d="M105.71 25.9485C104.055 30.0043 102.499 31.7846 100.446 31.7846C98.6922 31.7846 97.8638 30.7623 97.8638 29.7064C97.8638 28.684 98.7987 27.8293 99.8515 27.8293C100.973 27.8293 101.639 28.4215 102.432 29.4103C103.159 28.5626 103.771 27.6235 104.253 26.617L104.814 25.3637L98.9558 11.2874L96.9345 10.4978V10.0695H105.012V10.4978L102.894 11.2874L106.469 20.9485H106.633L109.878 11.5202L107.959 10.4978V10.0695H113.651V10.4978L111.501 11.5853L105.704 25.9578L105.71 25.9485Z" fill="#666666"/>
<path d="M124.583 25.4552C122.906 25.4745 121.242 25.1716 119.682 24.5632L119.65 20.2131L120.312 20.1479C122.099 23.2801 123.457 24.4645 125.211 24.4645C126.767 24.4645 127.728 23.4775 127.728 21.9617C127.728 20.2466 125.974 19.5874 124.085 18.8295C122 17.9393 119.784 16.9505 119.784 14.2131C119.784 11.606 122.101 9.53339 125.478 9.53339C126.768 9.53339 128.59 9.79595 129.483 10.1256L129.583 14.0492L128.954 14.2131C127.331 11.5446 126.273 10.5203 124.749 10.5203C123.36 10.5203 122.505 11.4515 122.505 12.6302C122.505 14.3453 124.293 15.038 126.179 15.796C128.266 16.6544 130.517 17.6414 130.517 20.4515C130.517 23.5185 127.802 25.4626 124.592 25.4626" fill="#666666"/>
<path d="M0.430573 45.3545H1.16917V37.6822H0.430573V45.3545ZM3.83374 45.3545H4.53119V38.8368H4.55176L8.93474 45.3545H9.59106V37.6822H8.8936V44.0137H8.87303L4.62469 37.6822H3.83374V45.3545ZM13.744 45.3545H14.4826V38.3657H16.9714V37.6822H11.2552V38.3657H13.744V45.3545ZM18.6375 45.3545H23.4561V44.6748H19.3761V41.632H22.2594V40.969H19.3761V38.3619H23.2374V37.6785H18.6375V45.3508V45.3545ZM25.455 45.3545H26.1768V41.9113H28.0915L29.9764 45.3545H30.8085L28.8694 41.8293C29.9913 41.6226 30.7112 40.9988 30.7112 39.7567C30.7112 38.4085 29.7539 37.6822 28.0373 37.6822H25.455V45.3545ZM26.1843 41.2577V38.3564H27.9737C29.2658 38.3564 29.9726 38.7288 29.9726 39.7865C29.9726 40.9038 29.2546 41.2595 27.985 41.2595L26.1843 41.2577ZM33.2729 45.3545H33.9704V38.8368H33.991L38.374 45.3545H39.0303V37.6822H38.3309V44.0137H38.3085L34.062 37.6822H33.2823V45.3545H33.2729ZM41.0179 45.3545H41.736L42.5587 42.9895H45.6814L46.5041 45.3545H47.2745L44.5464 37.6506H43.7536L41.0254 45.3545H41.0179ZM42.7868 42.3377L44.1088 38.5295H44.1275L45.4514 42.3452L42.7868 42.3377ZM50.2401 45.3545H50.9881V38.3657H53.4769V37.6822H47.7532V38.3657H50.2401V45.3545ZM55.2364 45.3545H55.9844V37.6822H55.2364V45.3545ZM61.4425 45.4997C63.3255 45.4997 64.6886 43.9225 64.6886 41.5184C64.6886 39.1143 63.3255 37.537 61.4425 37.537C59.5596 37.537 58.1927 39.1143 58.1927 41.5184C58.1927 43.9225 59.5577 45.4997 61.4425 45.4997ZM61.4425 44.8349C59.984 44.8349 58.9332 43.6022 58.9332 41.5184C58.9332 39.4346 59.984 38.2111 61.4425 38.2111C62.901 38.2111 63.9481 39.4346 63.9481 41.5184C63.9481 43.6022 62.8973 44.8349 61.4407 44.8349H61.4425ZM67.0521 45.3545H67.7496V38.8368H67.772L72.1531 45.3545H72.8095V37.6822H72.112V44.0137H72.0914L67.8431 37.6822H67.0521V45.3545ZM74.8083 45.3545H75.5264L76.3491 42.9895H79.4681L80.2889 45.3545H81.0612L78.3461 37.6506H77.544L74.8177 45.3545H74.8083ZM76.5772 42.3377L77.8992 38.5295H77.9198L79.2418 42.3452L76.5772 42.3377ZM83.1218 45.3545H87.63V44.6748H83.8548V37.6822H83.1068V45.3545H83.1218ZM92.0429 45.3545H92.7722V41.9113H94.6869L96.5717 45.3545H97.4038L95.4573 41.8293C96.5792 41.6226 97.2991 40.9988 97.2991 39.7567C97.2991 38.4085 96.3418 37.6822 94.6252 37.6822H92.0354V45.3545H92.0429ZM92.7722 41.2577V38.3564H94.5616C95.8537 38.3564 96.5605 38.7288 96.5605 39.7865C96.5605 40.9038 95.8425 41.2595 94.5729 41.2595L92.7722 41.2577ZM99.6514 45.3545H104.472V44.6748H100.384V41.632H103.268V40.969H100.384V38.3619H104.246V37.6785H99.6439V45.3508L99.6514 45.3545ZM105.42 45.3545H106.138L106.955 42.9988H110.078L110.901 45.3638H111.671L108.943 37.6599H108.141L105.414 45.3638L105.42 45.3545ZM107.189 42.3377L108.503 38.5295H108.524L109.846 42.3452L107.189 42.3377ZM113.546 45.3545H118.055V44.6748H114.27V37.6822H113.522V45.3545H113.546ZM120.115 45.3545H120.863V38.3657H123.352V37.6822H117.613V38.3657H120.1V45.3545H120.115ZM126.766 45.3545H127.514V41.9746L130.106 37.6822H129.315L127.159 41.3433L124.994 37.6822H124.193L126.774 41.9746V45.3545H126.766Z" fill="#666666"/>
</g>
<defs>
<clipPath id="clip0_347_359">
<rect width="130.5" height="45" fill="white" transform="translate(0.0078125 0.5)"/>
</clipPath>
</defs>
</svg>
