<svg width="104" height="46" viewBox="0 0 104 46" fill="none" xmlns="http://www.w3.org/2000/svg">
<path d="M18.4181 35.5168H21.7571V45.3568H23.0531V35.5168H26.3941V34.5428H18.4181V35.5168ZM34.4411 39.1808H29.2511V34.5428H27.9551V45.3588H29.2521V40.1538H34.4411V45.3588H35.7351V34.5428H34.4411V39.1808ZM42.5061 4.89383V27.0588H44.4831V4.89383C44.4818 3.71412 44.0125 2.58311 43.1782 1.74902C42.3439 0.914932 41.2128 0.44589 40.0331 0.444831C39.4453 0.44377 38.8631 0.559765 38.3206 0.786052C37.778 1.01234 37.286 1.34439 36.8731 1.76283L35.7971 2.88283L23.2801 16.1578H6.89812L6.33212 16.1238H6.27312C4.84108 16.1252 3.46803 16.6944 2.45514 17.7067C1.44225 18.7191 0.872235 20.0918 0.870117 21.5238V31.5808C0.871176 32.7607 1.34036 33.892 2.17466 34.7263C3.00897 35.5606 4.14023 36.0298 5.32012 36.0308C5.90856 36.0315 6.49124 35.915 7.03414 35.688C7.57704 35.461 8.06928 35.1281 8.48212 34.7088L10.9361 32.1308L24.1331 18.1338H35.0171V16.1588H25.9941L37.2251 4.24683L38.2831 3.14583C38.512 2.91579 38.7843 2.73344 39.0842 2.60933C39.3841 2.48523 39.7056 2.42184 40.0301 2.42283C40.6859 2.42363 41.3146 2.68457 41.7783 3.14839C42.2419 3.61221 42.5026 4.24102 42.5031 4.89683L42.5061 4.89383ZM9.50412 30.7708L7.06812 33.3288C6.72183 33.6739 6.2811 33.9087 5.80153 34.0036C5.32196 34.0985 4.82503 34.0492 4.37342 33.862C3.92181 33.6748 3.53576 33.3581 3.26394 32.9518C2.99213 32.5454 2.84674 32.0677 2.84612 31.5788V21.5218C2.84688 20.6182 3.20441 19.7514 3.84094 19.11C4.47747 18.4686 5.34151 18.1045 6.24512 18.0968L6.80812 18.1318H21.4181L9.50412 30.7708ZM39.7611 40.1698H44.5591V39.1988H39.7611V35.5188H44.6891V34.5438H38.4631V45.3588H44.7701V44.3858H39.7611V40.1698ZM50.5621 34.5428L46.7531 45.3588H48.2771L49.2171 42.6188H53.6771L54.6331 45.3588H56.4181L52.4931 34.5438H50.5631L50.5621 34.5428ZM49.6051 41.4348L51.4051 35.9218L53.2521 41.4348H49.6051ZM63.5981 43.8818C62.9981 44.0588 62.2371 44.2058 61.5231 44.2058C60.5661 44.2058 59.9681 43.9138 59.4971 43.2658C58.9941 42.5538 58.7181 41.3698 58.7181 39.9258C58.7181 37.1058 59.6761 35.7448 61.6851 35.7448C62.3841 35.7448 63.3881 35.8898 64.6211 36.1648L64.8801 34.9808C63.4211 34.5428 62.3991 34.3808 61.5231 34.3808C58.5901 34.3808 56.9361 36.3588 56.9361 39.9748C56.9361 43.5898 58.5081 45.5508 61.1991 45.5508C62.3191 45.5508 63.5181 45.2918 65.2041 44.6108V40.2488H63.5981V43.8818ZM69.0661 40.2998H73.7841V39.0998H69.0661V35.7598H73.9301V34.5428H67.3781V45.3588H73.9941V44.1438H69.0651V40.2988L69.0661 40.2998ZM82.5821 43.7518L78.1321 34.5428H75.8281V45.3588H77.2151V36.2318L81.6651 45.3588H83.9681V34.5428H82.5811V43.7518H82.5821ZM90.5881 44.1588C88.8221 44.1588 87.8651 42.6508 87.8651 39.8478C87.8651 37.2858 88.7891 35.7458 90.8321 35.7458C91.4971 35.7458 92.2591 35.8278 93.3131 36.0538L93.5881 34.8368C92.4211 34.5128 91.4801 34.3668 90.6381 34.3668C87.7361 34.3668 86.0821 36.3768 86.0821 39.9948C86.0821 43.6118 87.6711 45.5548 90.2801 45.5548C91.2531 45.5548 92.4541 45.3108 93.8471 44.7608L93.4731 43.5928C92.0801 43.9988 91.2361 44.1608 90.5881 44.1608V44.1588ZM102.151 34.5428L99.4761 39.3258L96.7701 34.5428H94.8071L98.4711 40.6078V45.3578H100.158V40.6078L103.805 34.5428H102.151Z" fill="#666666"/>
</svg>
